<?xml version="1.0" encoding="UTF-8"?>
<svg viewBox="0 0 200 204" xmlns="http://www.w3.org/2000/svg">
 <path d="m91.806 202.24c0-1.343 8.213-8.13 12.362-10.216 4.934-2.48 6.121-3.998 14.879-19.01 8.008-13.728 8.643-15.513 6.701-18.857-0.495-0.85301-1.082-1.969-1.303-2.481-0.222-0.511-1.136-2.464-2.031-4.34-1.789-3.747-2.254-12.08-1.134-20.307 0.66901-4.91-2.539-5.316-13.322-1.686-10.209 3.436-22.855 6.549-28.193 6.94-6.086 0.44501-6.189 0.642-16.024 30.778-3.8 11.643-7.416 22.284-8.037 23.648-0.621 1.365-1.593 3.79-2.16 5.39-0.871 2.459-1.386 3.024-3.327 3.649-1.2635 0.40701-3.7508 2.097-5.5278 3.756-3.4098 3.184-16.378 4.859-16.378 2.116 0-1.357 8.2321-8.139 12.459-10.265 7.6525-3.847 11.258-14.833 13.047-39.754 1.387-19.312 1.336-19.769-2.282-20.669-0.96101-0.239-2.2108-0.85001-2.7772-1.358-0.85361-0.76599-1.6455-0.811-4.6275-0.26199-1.9787 0.364-8.3173 0.662-14.086 0.662-13.173 0-14.806 0.493-14.806 4.465 0 2.999 2.0281 14.139 3.0607 16.813 0.37088 0.95999 0.67426 3.104 0.67426 4.765 0 3.974 0.80402 5.918 2.8648 6.925 0.92902 0.45401 1.8815 1.244 2.1167 1.755 0.23511 0.51199 0.75122 1.555 1.1467 2.317 1.7497 3.374 0.58386 11.325-1.6604 11.325-2.0509 0-10.693-10.051-10.693-12.436 0-0.59799-0.9823-2.259-2.1829-3.691-2.6466-3.155-2.5466-2.679-3.423-16.278-0.39038-6.057-0.96948-11.915-1.2869-13.017-2.1305-7.4-0.89117-8.605 14.504-14.106 13.792-4.929 13.323-4.615 12.393-8.293-0.3887-1.537-0.7102-3.857-0.7146-5.156-0.004517-1.298-0.53081-4.034-1.1698-6.081-3.2269-10.333-2.9902-23.266 0.5737-31.354 5.2327-11.876-0.44962-18.082-12.157-13.278-4.3136 1.77-6.286 1.883-10.526 0.60199-1.6807-0.508-3.8517-0.92401-4.8244-0.92401-0.97272 0-1.7685-0.24899-1.7685-0.55399 0-1.2 3.6847-4.4066 5.0741-4.4156 0.80408-0.005203 1.8823-0.28 2.3958-0.61061 0.6878-0.44269 0.26968-0.60348-1.5873-0.61049-1.3866-0.005203-2.7873-0.26709-3.1125-0.58189-0.32529-0.3148-1.4318-0.66351-2.4589-0.77501-6.6448-0.7213 1.0583-7.9424 11.475-10.757 4.1535-1.1223 8.1728-2.4485 8.9319-2.947 1.3992-0.91879 3.2642-4.7901 2.3077-4.7901-1.4415 0-4.3512-3.3222-4.3512-4.968 0-3.7065 5.0359-7.2024 8.056-5.5925 2.1102 1.125 1.4974 1.9287-1.1491 1.5072-2.0413-0.3251-2.5398-0.1839-3.1125 0.882-1.0315 1.9197-0.8493 2.4727 1.1547 3.5049 3.1361 1.6154 5.0109 1.2734 5.0109-0.91411 0-3.1672 2.8975-5.0975 5.9184-3.9428 0.8851 0.3383 0.7767 0.615-0.7272 1.8559-1.7675 1.4583-1.7675 1.4583-0.020905 3.0127 2.5272 2.2491 3.2334 1.9934 3.2334-1.1708 0-4.8828 3.7094-7.1219 5.6395-3.4041 0.7373 1.4203 1.1863 1.7484 1.6967 1.2401 1.2426-1.2377 2.2017-0.73441 2.9596 1.5531 0.409 1.2344 0.93109 1.9428 1.1591 1.5742 2.799-4.5109 13.886-2.6344 15.905 2.692 0.392 1.0351 0.60599 0.7919 1.296-1.4715 1.92-6.2991 7.321-9.233 24.568-13.345 10.263-2.4471 15.07-4.1427 23.027-8.1232 7.311-3.6575 9.448-3.4478 7.533 0.73929-0.92799 2.0276 0.936 1.7749 7.286-0.98801 10.434-4.5402 17.984-3.6448 13.812 1.6381-1.951 2.4705-1.095 2.3841 5.01-0.5058 6.196-2.933 7.581-2.8806 7.961 0.30151 0.26401 2.2128-1.245 4.4116-3.992 5.8152-2.028 1.0363-2.129 1.2105-1.167 2.0058 1.37 1.1322 11.513-2.191 22.232-7.2837 17.873-8.4919 11.254 5.8017-6.94 14.985-1.814 0.91582-3.154 1.8089-2.978 1.9847 0.394 0.39209 15.101-6.9278 17.161-8.5411 1.789-1.4006 3.714-1.5064 4.205-0.2312 1.104 2.8666-2.59 7.544-9.012 11.408-2.321 1.3973-5.642 3.7489-7.379 5.2258s-4.053 3.0544-5.146 3.5055c-1.988 0.82021-1.988 0.82021 0.33099 1.6144 7.029 2.4068 1.318 9.1405-11.562 13.634-4.046 1.4115-4.046 1.4115-1.048 1.4577 10.533 0.16222 3.087 9.2942-9.602 11.776-1.766 0.34599-2.183 0.56799-1.177 0.629 14.154 0.85001 7.529 9.014-8.017 9.879-7.084 0.394-7.084 0.394-4.358 1.886 1.499 0.81999 4.11 2.487 5.802 3.705 1.94 1.396 4.7 2.619 7.47 3.312 5.036 1.258 10.64 3.878 18.85 8.812 5.73 3.444 7.182 3.919 8.823 2.884 1.382-0.87199 0.425-2.23-4.031-5.718-9.567-7.489-7.123-18.946 5.246-24.586 7.243-3.304 13.037-2.302 19.291 3.335 4.024 3.627 4.77 3.779 4.77 0.97299 0-2.218 2.279-2.601 3.675-0.61699 1.444 2.054 1.228 3.695-0.80701 6.121-1.795 2.141-1.797 2.153-0.72299 4.317 1.722 3.471 3.338 11.487 2.973 14.746-0.869 7.765-1.896 13.228-3.23 17.187-3.657 10.853-4.097 17.094-1.009 14.31 1.663-1.498 2.544-0.75801 2.544 2.134 0 3.155-1.995 5.192-4.584 4.682-1.783-0.351-1.783-0.351 0.38899 2.043 2.794 3.082 4.478 8.001 3.92 11.459-0.228 1.417-0.668 4.566-0.979 6.998-0.74199 5.817-2.859 10.423-6.765 14.72-3.425 3.767-3.574 4.127-2.445 5.928 1.558 2.485-2.027 4.255-4.068 2.008-1.48-1.629-1.278-3.933 0.765-8.715 3.569-8.354 3.061-10.347-4.307-16.913-3.205-2.855-4.999-5.076-6.56-8.116-1.761-3.43-2.421-4.185-3.66-4.185-2.066 0-2.435-0.865-1.3-3.052 0.649-1.249 0.961-3.612 0.966-7.303 0.007996-7.222 1.51-10.476 7.818-16.933 7.708-7.889 10.403-17.666 4.87-17.666-1.066 0-1.158 0.421-0.96201 4.425 0.38901 7.981-2.568 12.281-8.506 12.367-3.49 0.050995-3.49 0.050995-4.256 4.96-0.421 2.701-1.343 7.407-2.047 10.459-2.232 9.669-1.114 13.217 6.45 20.467 4.557 4.367 4.557 4.367 4.033 14.598-0.28799 5.627-0.69699 14.835-0.90799 20.462-0.50801 13.513-0.65001 13.925-5.552 16.115-2.794 1.249-4.125 2.245-4.694 3.51-2.191 4.872-18.662 9.193-18.662 4.896 0-2.02 10.937-10.26 13.618-10.26 4.246 0 5.954-6.785 5.487-21.806-0.498-16.024-1.315-17.838-10.702-23.779-2.054-1.3-5.31-3.878-7.236-5.73-4.984-4.794-6.369 5.096-1.646 11.761 1.064 1.501-0.96599 5.387-5.277 10.101-1.871 2.046-4.411 5.255-5.644 7.131-1.234 1.876-4.496 6.48-7.249 10.231s-5.324 7.797-5.713 8.991c-2.032 6.236-3.574 7.633-9.13 8.266-2.099 0.239-3.339 0.92099-5.732 3.15-3.256 3.034-16.179 4.587-16.179 1.944z" fill="#fff"/>
 <path d="m92.806 204.24c0-1.343 8.213-8.13 12.362-10.216 4.934-2.481 6.121-3.998 14.879-19.01 8.008-13.728 8.643-15.513 6.701-18.858-0.495-0.852-1.082-1.968-1.303-2.48-0.222-0.511-1.136-2.465-2.031-4.34-1.789-3.747-2.254-12.08-1.134-20.307 0.66901-4.91-2.539-5.316-13.322-1.686-10.209 3.436-22.855 6.549-28.193 6.94-6.086 0.44501-6.189 0.642-16.024 30.778-3.8 11.643-7.416 22.284-8.037 23.648-0.621 1.365-1.593 3.79-2.16 5.39-0.871 2.459-1.386 3.024-3.327 3.649-1.2635 0.40701-3.7508 2.097-5.5278 3.756-3.4098 3.184-16.378 4.859-16.378 2.116 0-1.357 8.2321-8.139 12.459-10.265 7.6525-3.847 11.258-14.833 13.047-39.754 1.387-19.312 1.336-19.769-2.282-20.669-0.96101-0.239-2.2108-0.85001-2.7772-1.359-0.85361-0.76601-1.6455-0.81001-4.6275-0.261-1.9787 0.364-8.3173 0.662-14.086 0.662-13.173 0-14.806 0.493-14.806 4.465 0 2.999 2.0281 14.139 3.0607 16.813 0.37088 0.95999 0.67426 3.104 0.67426 4.765 0 3.974 0.80402 5.918 2.8648 6.925 0.92902 0.45401 1.8815 1.244 2.1167 1.755 0.23511 0.51199 0.75122 1.555 1.1467 2.317 1.7497 3.374 0.58386 11.325-1.6604 11.325-2.0509 0-10.693-10.051-10.693-12.436 0-0.59799-0.9823-2.259-2.1829-3.691-2.6466-3.155-2.5466-2.679-3.423-16.278-0.39038-6.057-0.96948-11.915-1.2869-13.017-2.1305-7.4-0.89117-8.605 14.504-14.106 13.792-4.929 13.323-4.615 12.393-8.293-0.3887-1.537-0.7102-3.857-0.7146-5.156-0.004517-1.298-0.53081-4.034-1.1698-6.081-3.2269-10.334-2.9902-23.266 0.5737-31.354 5.2327-11.876-0.44962-18.082-12.157-13.278-4.3136 1.77-6.286 1.883-10.526 0.60199-1.6807-0.508-3.8517-0.92401-4.8244-0.92401-0.97272 0-1.7685-0.24899-1.7685-0.55399 0-1.2 3.6847-4.4068 5.0741-4.4158 0.80408-0.005203 1.8823-0.27991 2.3958-0.6105 0.6878-0.4428 0.26968-0.60361-1.5873-0.6106-1.3866-0.005203-2.7873-0.2671-3.1125-0.5818-0.32529-0.3148-1.4318-0.66359-2.4589-0.7751-6.6448-0.7213 1.0583-7.9424 11.475-10.757 4.1535-1.1223 8.1728-2.4485 8.9319-2.947 1.3992-0.91881 3.2642-4.7901 2.3077-4.7901-1.4415 0-4.3512-3.3222-4.3512-4.968 0-3.7065 5.0359-7.2024 8.056-5.5925 2.1102 1.1249 1.4974 1.9287-1.1491 1.5072-2.0413-0.3252-2.5398-0.1839-3.1125 0.882-1.0315 1.9197-0.84918 2.4727 1.1547 3.5049 3.1361 1.6154 5.0109 1.2734 5.0109-0.9142 0-3.1671 2.8975-5.0974 5.9184-3.9427 0.8851 0.3383 0.7767 0.615-0.7272 1.8558-1.7675 1.4583-1.7675 1.4583-0.020905 3.0128 2.5272 2.2491 3.2334 1.9934 3.2334-1.1708 0-4.8828 3.7094-7.1219 5.6395-3.4041 0.7373 1.4203 1.1863 1.7484 1.6967 1.2401 1.2426-1.2377 2.2017-0.73441 2.9596 1.553 0.409 1.2345 0.93109 1.9429 1.1591 1.5742 2.799-4.5108 13.886-2.6343 15.905 2.6921 0.392 1.0351 0.60599 0.7919 1.296-1.4715 1.92-6.2992 7.321-9.233 24.568-13.345 10.263-2.447 15.07-4.1426 23.027-8.1231 7.367-3.6856 9.831-3.3623 7.339 0.96298-1.175 2.04 0.608 1.7397 7.606-1.2809 10.355-4.4697 17.828-3.5375 13.686 1.7072-1.951 2.4706-1.095 2.3842 5.01-0.50571 6.196-2.9331 7.581-2.8806 7.961 0.30139 0.26401 2.2128-1.245 4.4117-3.992 5.8153-2.028 1.0363-2.129 1.2105-1.167 2.0057 1.37 1.1323 11.513-2.1909 22.232-7.2837 17.873-8.4919 11.254 5.8017-6.94 14.985-1.814 0.91589-3.154 1.809-2.978 1.9848 0.394 0.39212 15.101-6.9279 17.161-8.5412 1.789-1.4005 3.714-1.5063 4.205-0.2312 1.104 2.8667-2.59 7.5441-9.012 11.409-2.321 1.3973-5.642 3.7489-7.379 5.2258s-4.053 3.0544-5.146 3.5055c-1.988 0.82021-1.988 0.82021 0.33099 1.6144 7.029 2.4068 1.318 9.1405-11.562 13.634-4.046 1.4116-4.046 1.4116-1.048 1.4577 10.533 0.16219 3.087 9.2944-9.602 11.776-1.766 0.34599-2.183 0.56799-1.177 0.629 14.154 0.85001 7.529 9.014-8.017 9.879-7.084 0.394-7.084 0.394-4.358 1.885 1.499 0.82098 4.11 2.488 5.802 3.706 1.94 1.396 4.7 2.619 7.47 3.312 5.036 1.258 10.64 3.878 18.85 8.812 5.73 3.444 7.182 3.919 8.823 2.884 1.382-0.87199 0.425-2.23-4.031-5.718-9.567-7.489-7.123-18.946 5.246-24.587 7.244-3.303 13.037-2.301 19.291 3.336 4.024 3.627 4.77 3.779 4.77 0.97299 0-2.218 2.279-2.601 3.675-0.61699 1.444 2.054 1.228 3.695-0.80701 6.121-1.795 2.141-1.797 2.153-0.72299 4.317 1.722 3.471 3.338 11.487 2.973 14.746-0.869 7.765-1.896 13.228-3.23 17.187-3.657 10.853-4.097 17.094-1.009 14.31 1.663-1.498 2.544-0.75801 2.544 2.134 0 3.155-1.995 5.192-4.584 4.682-1.783-0.351-1.783-0.351 0.38899 2.043 2.794 3.081 4.478 8.001 3.92 11.459-0.228 1.417-0.668 4.566-0.979 6.998-0.74199 5.816-2.859 10.423-6.765 14.72-3.425 3.767-3.574 4.127-2.445 5.928 1.558 2.485-2.027 4.255-4.068 2.008-1.48-1.629-1.278-3.933 0.765-8.716 3.569-8.353 3.061-10.346-4.307-16.912-3.205-2.855-4.999-5.076-6.56-8.116-1.761-3.431-2.421-4.185-3.66-4.185-2.066 0-2.435-0.86601-1.3-3.052 0.649-1.25 0.961-3.612 0.966-7.304 0.007996-7.221 1.51-10.475 7.818-16.932 7.708-7.889 10.403-17.667 4.87-17.667-1.066 0-1.158 0.422-0.96201 4.426 0.38901 7.981-2.568 12.28-8.506 12.367-3.49 0.050003-3.49 0.050003-4.256 4.96-0.421 2.701-1.343 7.407-2.047 10.459-2.232 9.669-1.114 13.217 6.45 20.467 4.557 4.367 4.557 4.367 4.033 14.598-0.28799 5.627-0.69699 14.835-0.90799 20.462-0.50801 13.513-0.65001 13.925-5.552 16.115-2.794 1.249-4.125 2.245-4.694 3.51-2.191 4.872-18.662 9.193-18.662 4.896 0-2.02 10.937-10.26 13.618-10.26 4.246 0 5.954-6.785 5.487-21.806-0.498-16.024-1.315-17.838-10.702-23.779-2.054-1.3-5.31-3.878-7.236-5.73-4.984-4.794-6.369 5.096-1.646 11.761 1.064 1.501-0.96599 5.387-5.277 10.101-1.871 2.046-4.411 5.255-5.644 7.131-1.234 1.876-4.496 6.479-7.249 10.231-2.753 3.751-5.324 7.797-5.713 8.991-2.032 6.236-3.574 7.633-9.13 8.266-2.099 0.239-3.339 0.92099-5.732 3.15-3.256 3.034-16.179 4.587-16.179 1.944zm13.774-1.96c2.025-1.826-2.132-6.219-4.369-4.617-6.661 4.769-6.899 5.565-1.673 5.592 3.693 0.018997 5.21-0.226 6.042-0.97499zm55.402 0c2.025-1.826-2.131-6.219-4.368-4.617-6.662 4.769-6.899 5.565-1.673 5.592 3.692 0.018997 5.21-0.226 6.041-0.97499zm-118.9-0.62c2.0252-1.826-2.1314-6.219-4.3685-4.617-6.6613 4.769-6.8992 5.565-1.673 5.592 3.6923 0.018997 5.2099-0.226 6.0415-0.97501zm67.676-3.96c1.074-1.023 2.257-1.86 2.626-1.86 0.37001 0 1.143-0.47101 1.718-1.046 0.98001-0.981 1.058-0.959 1.249 0.34601 0.39 2.669 2.24 1.103 4.83-4.089 1.399-2.805 4.62-7.796 7.159-11.093 2.538-3.296 6.155-8.156 8.038-10.8s4.626-6.272 6.095-8.062c3.07-3.741 2.556-5.122-2.801-7.522-1.441-0.645-2.788-1.444-2.994-1.776-0.76-1.226 1.36-0.536 4.912 1.597 4.775 2.868 5.17 2.329 0.702-0.959-3.573-2.629-4.465-4.365-0.97-1.886 2.646 1.877 2.383 0.894-0.431-1.61-2.292-2.039-1.117-2.364 1.245-0.34399 0.98799 0.845 1.09 0.812 1.09-0.353 0-0.70601-0.77-1.843-1.711-2.525-0.94101-0.683-1.508-1.444-1.26-1.691 0.248-0.246 0.877-0.095001 1.399 0.336 1.101 0.91 1.219 0.433 0.31-1.258-0.351-0.65401-2.166-1.909-4.033-2.789-2.988-1.407-4.825-2.761-3.748-2.761 0.98999 0 4.925 1.979 6.864 3.452 1.198 0.91 2.179 1.409 2.179 1.109 0-0.78401-6.587-5.801-7.616-5.801-0.474 0-1.405-0.40999-2.07-0.911-1.177-0.88699-1.172-0.911 0.205-0.92999 1.475-0.020004 5.673 2.321 8.08 4.506 1.125 1.021 1.401 1.083 1.401 0.315 0-1.009-3.585-3.68-7.771-5.792-5.824-2.937-9.763-6.439-4.814-4.28 0.58701 0.257 1.375 0.42 1.75 0.364 0.375-0.056992 1.44 0.597 2.366 1.452 0.927 0.85501 1.917 1.555 2.199 1.555 0.283 0 0.87601 0.43399 1.318 0.964 0.442 0.53 1.316 1.238 1.944 1.572 1.478 0.78801 1.509-0.22 0.05101-1.672-0.599-0.597-0.99901-1.234-0.888-1.415 0.11099-0.18201-0.26001-0.492-0.824-0.68901-0.564-0.19699-0.967-0.62599-0.894-0.954 0.384-1.735-7.049-2.778-11.245-1.577-1.554 0.444-1.554 0.446 0.623 1.561 2.503 1.282 4.98 3.396 4.98 4.252 0 0.32201-0.911-0.10199-2.024-0.94099-2.684-2.027-4.824-3.128-4.824-2.482 0 0.28699 1.866 1.886 4.146 3.554 2.28 1.667 3.811 3.143 3.402 3.278-0.408 0.13599-1.174-0.11-1.703-0.54701-0.75499-0.62399-1.061-0.631-1.433-0.031998-0.351 0.56601-0.85899 0.42801-1.975-0.537-1.503-1.3-1.503-1.3 0.052994-0.922 1.556 0.377 1.556 0.377-0.19-1.208-2.329-2.113-4.311-1.976-2.175 0.151 0.58101 0.579 0.58101 0.745 0 0.745-2.111 0-0.25299 1.761 3.454 3.275 4.151 1.695 4.168 1.711 1.401 1.359-1.541-0.196-3.422-0.761-4.18-1.255-1.786-1.165-2.045-1.134-2.045 0.241 0 1.162 2.321 2.58 4.222 2.58 1.241 0 7.736 3.177 7.328 3.584-0.15401 0.153-2.376-0.59-4.938-1.652-2.562-1.063-5.121-1.932-5.687-1.932-1.644 0-0.71901 1.403 1.402 2.128 2.937 1.003 3.302 1.82 0.63 1.409-1.284-0.19701-2.334-0.198-2.334-0.001007 0 0.57301 2.103 2.003 2.976 2.025 1.216 0.029999 5.35 1.854 4.998 2.205-0.171 0.16899-1.518-0.116-2.994-0.63501-3.242-1.139-3.524-0.95-2.282 1.53 2.285 4.563 3.135 10.919 1.717 12.841-4.543 6.155-15.405 25.959-14.455 26.354 0.55699 0.232 0.73299 0.442 0.39099 0.468-0.342 0.026001-1.689 1.022-2.992 2.214s-2.843 2.171-3.423 2.176c-2.413 0.022003-2.834 0.982-1.322 3.018 1.719 2.317 1.246 2.307 3.593 0.072998zm23.441-39.063c-0.924-1.017-0.95799-1.24-0.19299-1.24 0.51399 0 1.441 0.558 2.061 1.24 0.924 1.017 0.95799 1.24 0.19299 1.24-0.51401 0-1.441-0.55801-2.061-1.24zm0.623-1.728c-2.234-1.169-2.792-1.696-1.977-1.865 0.625-0.13 1.627 0.207 2.228 0.748 0.59999 0.54199 1.386 0.98399 1.745 0.98399 0.35899 0 1.001 0.41901 1.428 0.931 1.084 1.301 0.18501 1.091-3.424-0.79799zm3.909-0.657c-3.124-1.776-4.854-3.2-3.878-3.19 1.047 0.009995 7.128 3.719 7.128 4.347 0 0.748 0.26201 0.84099-3.25-1.157zm-8.889-4.47c-1.37-0.645-1.991-1.181-1.381-1.19 1.269-0.018005 5.427 1.608 5.427 2.122 0 0.612-1.506 0.265-4.046-0.93199zm3.709-1.247c-0.73-1.177 0.33501-1.467 1.419-0.38699 0.96999 0.966 0.972 1.048 0.021988 1.048-0.567 0-1.215-0.298-1.441-0.66101zm1.893-2.117c-1.027-0.46101-2.826-1.194-3.997-1.63-1.172-0.435-1.803-0.90001-1.402-1.033 0.937-0.312 6.365 1.664 7.556 2.75 1.141 1.04 0.27499 1.005-2.157-0.08699zm0.312-5.996c-2.179-1.199-2.179-1.199-0.312-0.82201 1.027 0.207 2.278 0.77701 2.779 1.266 1.232 1.201 0.17801 1.012-2.467-0.444zm30.06 55.279c0.166-0.634 1.979-1.996 4.029-3.027 4.685-2.356 4.591-2.095 5.19-14.335 1.61-32.895 1.878-29.82-3.059-34.997-7.954-8.34-8.918-12.144-5.981-23.599 3.26-12.719 2.942-15.724-2.091-19.775-5.114-4.116-7.537-7.197-5.659-7.197 0.72 0 2.72 1.574 9.257 7.285 4.544 3.972 6.011 4.129 8.635 0.931 1.049-1.279 1.916-1.944 1.928-1.478 0.011002 0.46701-1.067 1.932-2.396 3.256-2.417 2.407-2.417 2.407-0.731 2.407 3.59 0 5.997-5.097 5.473-11.592-0.47-5.836 3.011-7.737 6.373-3.479 2.735 3.462-0.308 11.878-6.853 18.953-5.871 6.346-7.434 9.801-7.442 16.447-0.003998 3.766-0.28601 5.563-1.056 6.733-1.003 1.525-0.99701 1.586 0.134 1.369 1.218-0.23401 1.891-1.278 3.938-6.109 0.963-2.274 1.269-2.581 1.653-1.662 0.30101 0.72-0.114 2.479-1.147 4.863-2.109 4.869 0.093994 10.013 6.411 14.969 8.289 6.503 9.186 10.282 4.604 19.392-2.478 4.928-2.443 6.513 0.15199 6.987 0.952 0.174 1.029 0.060989 0.401-0.589-1.539-1.59-0.86301-4.077 2.027-7.449 6.569-7.665 6.07-11.161-3.109-21.789-2.285-2.646-4.049-5.126-3.92-5.513 0.384-1.146 10.007 9.837 11.667 13.317 1.53 3.206 1.53 3.206 1.741 1.02 0.273-2.821-3.863-10.513-7.172-13.338-2.479-2.118-5.657-7.108-4.527-7.108 0.373 0 1.409 1.207 2.304 2.682 0.894 1.474 2.515 3.288 3.603 4.03 1.087 0.74301 2.937 3.049 4.109 5.126 2.133 3.776 2.133 3.776 2.611 1.483 0.79401-3.805-0.858-7.995-4.756-12.066-5.127-5.354-6.072-10.263-2.878-14.958 1.021-1.5 1.861-3.186 1.868-3.745 0.006012-0.55901 0.59201-1.675 1.303-2.48 1.16-1.314 1.26-1.337 0.97499-0.224-0.713 2.788-2.419 6.882-3.249 7.8-3.664 4.051 2.69 12.452 6.691 8.846 1.437-1.296 1.631-3.253 0.205-2.075-5.228 4.322-5.43-7.581-0.35199-20.692 4.23-10.92 1.246-30.152-4.677-30.152-0.77701 0-2.328-0.767-3.446-1.705-2.732-2.289-7.532-2.443-9.277-0.297-0.733 0.90199-1.296 1.164-1.566 0.72899-2.153-3.469 7.636-5.049 11.32-1.827 4.508 3.942 11.957 0.32201 8.931-4.341-0.45999-0.71001-0.605-0.47101-0.61299 1.01-0.021011 4.41-2.659 4.185-7.719-0.65799-5.271-5.044-10.703-5.891-17.786-2.771-8.691 3.828-12.107 14.292-6.337 19.412 1.64 1.456 1.647 1.215 0.086014-2.731-2.531-6.396 1.742-15.502 7.274-15.502 0.474 0 1.561-0.45601 2.415-1.013 2.033-1.327 9.235-0.87399 10.764 0.67801 0.953 0.96599 0.895 1.004-0.845 0.547-16.244-4.258-25.087 10.721-13.5 22.867 4.338 4.547-2.153 9.316-7.15 5.254-8.211-6.676-25.103-13.394-25.103-9.984 0 1.994-1.583 3.973-3.178 3.973-1.032 0-1.049 0.16199-0.21399 2.151 1.817 4.332 0.077988 9.01-3.351 9.01-1.04 0-1.158 0.34599-0.899 2.637 0.334 2.944-0.57701 4.185-3.836 5.227-2.686 0.85899-2.564 1.642 0.485 3.118 1.941 0.93901 3.221 2.176 4.462 4.313 8.956 15.416 18.108 26.48 25.206 30.47 9.382 5.275 10.646 8.234 11.059 25.89 0.37601 16.094-1.049 21.944-5.357 21.983-2.375 0.022003-2.809 0.98599-1.338 2.968 1.478 1.991 2.783 2.04 3.286 0.12399zm8.297-39.545c0.33101-3.202 0.211-4.102-0.67799-5.08-1.555-1.711-0.96701-2.751 0.842-1.489 1.575 1.098 1.618 6.892 0.070007 9.422-0.45201 0.737-0.51901-0.088989-0.23401-2.853zm13.762-23.555c-4.149-4.314-4.599-16.198-0.73401-19.392 1.25-1.034 1.212 1.116-0.048996 2.777-2.526 3.327-0.80701 13.938 2.74 16.911 1.164 0.976 1.356 1.379 0.66399 1.395-0.53499 0.013-1.714-0.74899-2.621-1.691zm-25.352-13.723c0-0.30499-0.69501-1.212-1.545-2.015-1.55-1.464-2.063-3.01-1-3.01 0.83099 0 3.79 3.667 3.79 4.698 0 0.485-0.28 0.882-0.62199 0.882-0.343 0-0.623-0.25-0.623-0.55501zm0.914-6.632c0.474-3.778-0.233-6.402-2.366-8.777-1.582-1.762-0.998-2.426 0.991-1.128 2.587 1.688 4.026 8.619 2.573 12.391-0.897 2.329-1.615 0.839-1.198-2.486zm25.853-0.565c0-0.172 0.83501-1.637 1.856-3.256 1.201-1.905 1.86-2.532 1.868-1.776 0.014008 1.376-2.326 5.344-3.152 5.344-0.31401 0-0.57201-0.14101-0.57201-0.31201zm4.253-11.066c0.118-1.483-0.062012-3.696-0.401-4.919-0.69301-2.5-0.349-3.27 0.972-2.177 1.318 1.089 0.676-2.274-1-5.244-1.331-2.358-0.795-3.117 0.96399-1.365 0.53 0.528 1.056 0.867 1.168 0.755 0.56001-0.55701-1.233-5.374-2.126-5.716-3.579-1.37-4.695-2.562-2.747-2.936 0.97099-0.187 0.944-0.345-0.27101-1.556-1.759-1.751-5.444-2.769-7.379-2.036-0.815 0.30901-1.629 0.32201-1.811 0.029007-0.806-1.3 4.58-1.743 7.56-0.621 2.066 0.77701 4.902 3.695 5.525 5.684 0.243 0.774 0.62801 1.546 0.857 1.717 1.625 1.213 3.138 7.247 2.081 8.3-0.24701 0.24599-0.368 1.381-0.269 2.521 0.097992 1.141-0.12001 2.259-0.48601 2.484-0.365 0.22501-0.66499 1.898-0.66499 3.717 0 2.959-0.563 4.06-2.078 4.06-0.059998 0-0.012009-1.214 0.106-2.697zm-26.04-2.574c-1.121-1.188-1.237-1.55-0.496-1.55 0.53101 0 1.315 0.41899 1.741 0.92999 1.006 1.208 2.772 1.181 4.691-0.070999 1.915-1.25 2.056-0.052994 0.14999 1.276-2.033 1.419-4.412 1.191-6.086-0.58501zm4.437-14.867c-4.072-4.4-3.351-9.562 1.891-13.535 2.19-1.661 6-2.979 5.287-1.83-0.21901 0.35301-1.102 0.81801-1.962 1.033-2.964 0.741-5.893 4.294-6.269 7.606-0.341 2.992-0.341 2.992 0.88699 0.51102 1.494-3.018 4.138-5.646 4.726-4.697 0.228 0.367 0.159 0.66701-0.15201 0.66701-2.559 0-4.841 7.164-3.043 9.552 3.338 4.433 2.492 4.861-1.365 0.69301zm-118.98 106.12c0.856-2.185 1.88-4.358 2.275-4.828 0.395-0.47101 3.956-10.761 7.914-22.868 3.958-12.106 7.812-23.631 8.564-25.61 1.255-3.301 1.285-3.681 0.37-4.593-0.91498-0.91101-1.032-0.85701-1.415 0.66199-0.229 0.91-0.87601 1.914-1.437 2.232-0.855 0.485-0.893 0.783-0.23599 1.852 0.627 1.02 0.62799 1.522 0.005997 2.515-0.839 1.337-2.038 1.617-2.657 0.62-0.21201-0.341 0.202-0.62 0.91899-0.62 1.111 0 1.205-0.18301 0.63699-1.24-0.50398-0.939-1.303-1.24-3.292-1.24-3.21 0-6.218-2.619-5.621-4.894 0.48801-1.856 1.589-1.327 2.211 1.061 0.28198 1.085 0.776 1.973 1.098 1.973 0.32199 0 0.424-0.41899 0.22699-0.92999-0.22299-0.57901 0.003998-0.931 0.60001-0.931 0.52699 0 1.136 0.558 1.354 1.241 0.399 1.253 1.556 1.738 1.556 0.65199 0-0.32399 0.69699-1.338 1.55-2.255 0.85301-0.916 1.812-2.535 2.132-3.597 0.319-1.062 0.86299-2.84 1.209-3.952 0.584-1.88 0.50101-2.086-1.198-2.961-2.302-1.186-2.432-2.435-0.19402-1.875 1.476 0.369 1.539 0.31601 0.66299-0.55699-1.088-1.084-1.954-3.363-1.464-3.852 0.177-0.176 0.74899 0.50101 1.27 1.505 1.023 1.97 3.495 3.87 5.036 3.87 1.247 0 1.227 1.028-0.033005 1.73-0.90399 0.50401-0.90399 0.63701 0 1.537 1.34 1.335 1.244 1.858-0.256 1.384-0.855-0.27-1.245-0.112-1.245 0.506 0 1.359 3.108 1.695 4.896 0.52901 1.094-0.714 1.616-0.797 1.788-0.282 0.134 0.39999 0.584 0.597 0.99901 0.438 0.416-0.15901 1.308 0.131 1.983 0.644 1.151 0.875 1.098 0.909-0.85901 0.54399-1.408-0.263-2.25-0.125-2.591 0.425-0.302 0.487-1.525 0.774-3.049 0.714-2.546-0.098999-3.414 0.66699-1.56 1.376 2.241 0.856 5.728 0.418 5.638-0.709-0.091995-1.15-0.048996-1.156 3.337-0.468 1.783 0.36301 2.037 0.29701 1.401-0.366-1.222-1.271-0.90901-2.111 0.36-0.967 1.531 1.38 5 1.472 3.619 0.095993-0.513-0.51199-1.304-0.939-1.756-0.95-1.809-0.042999-5.083-3.7-3.313-3.7 0.51401 0 0.93401 0.27699 0.93401 0.616 0 1.318 5.472 3.236 8.23 2.885 1.465-0.186 3.451-0.352 4.413-0.37001 0.961-0.016998 1.581-0.301 1.376-0.631s-1.202-0.43401-2.215-0.232c-1.263 0.25099-1.844 0.121-1.844-0.414 0-0.584 1.11-0.70201 4.394-0.468 3.011 0.215 4.633 0.074005 5.156-0.446 0.41901-0.418 2.153-0.98201 3.854-1.253 2.659-0.425 2.874-0.558 1.536-0.948-1.08-0.315-0.31898-0.477 2.49-0.53101 2.226-0.042999 6.568-0.12199 9.649-0.17699 6.043-0.10701 9.649 0.44299 9.649 1.472 0 0.40599-1.39 0.54599-3.735 0.377-2.725-0.19701-3.735-0.059006-3.735 0.508 0 1.378 1.223 1.603 6.294 1.156 5.44-0.48001 5.956-1.119 2.384-2.955-1.178-0.60501-2.085-1.335-2.014-1.623 0.069992-0.287-0.56-1.166-1.401-1.953-2.43-2.274-1.771-2.75 0.896-0.646 3.478 2.744 4.014 2.327 0.689-0.53601-1.541-1.325-2.598-2.612-2.35-2.859 0.248-0.24699 1.008 0.218 1.69 1.034 1.506 1.801 1.675 1.107 0.25499-1.051-1.647-2.504-4.712-3.841-6.386-2.785-0.70799 0.446-0.48399 1.047 1.164 3.119 2.845 3.579 1.758 4.035-1.253 0.52699-1.905-2.22-3.023-2.964-4.942-3.286-1.364-0.23-3.464-1.083-4.667-1.896-1.908-1.29-2.187-1.343-2.189-0.412-0.009995 4.411-4.894 6.466-9.18 3.863-1.48-0.899-2.023-1.007-2.023-0.403 0 1.436-2.301 2.99-4.153 2.803-0.968-0.097-2.461 0.263-3.317 0.801-2.012 1.265-9.275 1.355-12.169 0.15001-4.027-1.676-8.402-11.418-5.836-12.997 0.42801-0.26399 0.16501-0.94699-0.73099-1.897-1.376-1.459-0.87801-2.172 0.534-0.76502 0.548 0.54501 1.024 0.358 1.972-0.77499 1.687-2.019 1.662-0.481-0.050003 3.042-1.473 3.031-1.177 4.905 1.465 9.26 1.593 2.627 2.164 2.541 3.388-0.506 0.64002-1.593 1.23-2.304 1.604-1.931 0.37401 0.37199 0.228 1.289-0.395 2.49-1.392 2.68-0.036987 4.392 2.772 3.504 3.282-1.037 1.278-9.059-2.713-10.856-3.815-1.717-5.187-2.93-4.307-3.808 0.543-0.54001 0.946-0.52701 1.649 0.054001 0.759 0.62799 1.186 0.532 2.316-0.515 1.571-1.459 1.168-2.229-1.169-2.229-0.87999 0-1.723-0.36101-1.873-0.802-0.198-0.582 0.16901-0.69099 1.338-0.399 1.892 0.47301 2.858-1.037 1.616-2.527-0.627-0.75301-0.57901-0.92201 0.261-0.92201 0.56699 0 1.194 0.427 1.395 0.949 0.201 0.521 1.103 1.373 2.004 1.892 1.638 0.944 1.638 0.944-0.07399 0.59-1.538-0.319-1.714-0.17999-1.732 1.362-0.009995 0.94501-0.431 2.259-0.933 2.921-1.177 1.55-1.157 2.207 0.067001 2.207 1.656 0 4.621 3.447 4.625 5.378 0.005997 3.312 1.21 6.403 2.494 6.403 3.871 0 2.851-10.613-1.267-13.174-1.637-1.018-1.559-1.597 0.17-1.275 2.729 0.507 4.033-1.213 2.445-3.224-0.746-0.944-1.343-2.446-1.328-3.338 0.026001-1.532 0.093994-1.495 1.239 0.664 1.503 2.834 2.107 3.221 3.7 2.372 2.039-1.087 1.505-2.878-1.466-4.915-1.788-1.225-2.838-2.456-3.054-3.583-0.30699-1.602-0.271-1.637 0.546-0.524 0.481 0.655 0.875 1.417 0.875 1.693s0.355 0.502 0.789 0.502c0.43399 0 1.779 0.66899 2.989 1.488 1.615 1.094 2.48 1.332 3.257 0.90001 0.68399-0.382 1.057-0.371 1.057 0.029999 0 0.341-0.429 0.85899-0.953 1.152-0.52499 0.29201-1.435 1.492-2.023 2.666-0.589 1.174-1.7 2.41-2.471 2.746-0.77 0.33701-1.4 0.834-1.4 1.105 0 0.272-0.55899 0.699-1.242 0.951-1.209 0.446-1.2 0.51401 0.33099 2.659 0.865 1.211 1.805 3.663 2.088 5.45 0.58101 3.657 1.358 4.768 2.919 4.171 1.463-0.55899 0.832-11.122-0.77-12.885-0.895-0.985-0.905-1.133-0.074997-1.133 1.475 0 2.173 1.263 2.65 4.794 0.84601 6.272 6.88 10.52 9.432 6.64 1.419-2.157-1.167-7.773-5.878-12.769-1.818-1.928-3.057-3.659-2.752-3.846 0.724-0.44601 7.016 6.046 8.884 9.167 1.951 3.258 2.305 1.753 0.582-2.474-1.278-3.136-6.562-8.952-8.132-8.952-0.299 0-0.714-0.675-0.922-1.501-0.841-3.339-4.589-5.677-6.167-3.847-1.777 2.059-2.332 2.073-1.555 0.037003 0.948-2.485 0.75099-3.069-1.416-4.204-2.024-1.058-2.024-1.058 0.62199-0.791 3.113 0.314 3.77-1.286 1.111-2.704-1.702-0.90799-1.494-2.125 0.26799-1.568 1.496 0.47301 2.111-1.234 0.88501-2.456-0.524-0.521-1.352-0.948-1.842-0.948-1.095 0-1.171-1.011-0.11101-1.482 0.42799-0.19 0.078003-0.28299-0.778-0.207-1.14 0.10199-1.613 0.554-1.768 1.689-0.248 1.804-1.791 3.72-2.997 3.72-1.302 0-0.985-1.109 0.44499-1.562 1.034-0.326 1.208-0.744 0.89801-2.152-0.352-1.595-0.18001-1.812 1.985-2.507 3.883-1.246 5.035-2.646 2.682-3.259-1.447-0.377-1.688-1.681-0.31099-1.681 0.51399 0 0.93399 0.27901 0.93399 0.62 0 0.341 0.681 0.621 1.514 0.621 0.968 0 1.657 0.44701 1.909 1.24 0.218 0.68199 0.927 1.24 1.578 1.24 0.64999 0 2.165 0.46701 3.368 1.038 2.044 0.97099 2.261 0.97099 3.338 0 0.634-0.571 1.48-1.038 1.881-1.038s0.729-0.41899 0.729-0.92999c0-0.51199 0.28-0.92999 0.623-0.92999 1.283 0 0.55501-1.243-1.283-2.19-2.514-1.295-6.33-0.99498-6.548 0.515-0.19301 1.339-1.421 2.915-2.272 2.915-0.33701 0-0.442-0.44499-0.232-0.98799 1.261-3.275 1.175-3.973-0.492-3.973-2.098 0-2.152-1.615-0.067001-2.012 1.073-0.20401 1.556-0.020996 1.556 0.591 0 1.521 2.774 0.685 3-0.90401 0.217-1.52 1.358-1.948 1.358-0.509 0 3.127 7.243 4.049 10.392 1.322 2.127-1.842 1.543-3.353-1.737-4.498-2.582-0.90201-8.182-1.034-9.007-0.21301-0.839 0.83701-4.252 1.082-4.628 0.33301-0.17201-0.34 0.24399-0.619 0.92299-0.62 1.834-0.001007 1.883-1.936 0.07901-3.113-1.342-0.87601-1.873-0.909-3.757-0.23-2.525 0.909-3.736 0.25299-1.943-1.053 1.862-1.357 7.152-0.53801 8.767 1.358 2.088 2.449 14.606 1.795 14.606-0.76302 0-3.043-6.864-4.5866-13.917-3.131-6.745 1.393-14.046 0.446-11.005-1.4258 0.977-0.6013 2.88-0.13571 3.759 0.91969 1.248 1.4981 6.223-0.7749 6.223-2.8427 0-1.2565-2.153-2.7117-3.126-2.1128-0.33501 0.20639-0.60899 0.7326-0.60899 1.1692 0 1.0369-2.939 2.3955-3.439 1.5897-0.203-0.32809 0.067001-0.5966 0.601-0.5966 1.275 0 1.24-1.7758-0.062988-3.2103-1.288-1.4174-0.57301-2.2734 1.053-1.2617 1.703 1.0591 3.389 0.9375 6.278-0.4527 2.831-1.3627 5.319-1.0824 3.319 0.3739-0.627 0.4567-1.646 0.8304-2.266 0.8304-1.246 0-1.507 0.93231-0.44499 1.5862 0.375 0.23068 0.562 1.0393 0.41699 1.7969-0.416 2.1663 7.621 1.4955 13.383-1.117 4.509-2.0446 4.709-2.4477 2.155-4.3473-1.554-1.1555-1.909-1.1779-6.126-0.38539-4.893 0.91969-8.653-0.2475-9.176-2.849-0.18001-0.8932 0.164-0.7829 1.778 0.5694 2.4 2.0114 4.646 1.8456 9.916-0.73169 5.769-2.8217 2.877-3.6385-7.027-1.9854-3.856 0.64349-5.49 0.54691-4.664-0.27589 0.16499-0.16411 2.395-0.69769 4.955-1.1857 6.468-1.2327 16.741-6.3995 16.741-8.4202 0-1.9282-7.275-1.8449-9.618 0.11009-0.325 0.27141-1.003 0.4935-1.507 0.4935-0.50401 0-1.358 0.36891-1.899 0.8199-0.54001 0.4509-2.173 1.1932-3.628 1.6494-1.455 0.45619-2.646 1.0204-2.646 1.2538 0 1.0842-2.993 3.6753-4.669 4.0421-1.867 0.40878-1.867 0.40878-0.046997-0.84671 3.891-2.6851 3.431-4.395-1.198-4.4477-2.036-0.023087-2.286-0.14629-1.372-0.67628 0.61499-0.35631 2.086-0.518 3.269-0.35931 2.378 0.3193 2.74-0.3781 1.119-2.1615-0.895-0.9856-0.90501-1.1339-0.076004-1.1339 1.311 0 2.569 1.6428 2.13 2.7824-1.277 3.3146 8.129-1.5088 10.019-5.138 1.125-2.1581 1.104-2.1595-5.798-0.40189-19.18 4.8838-19.161 4.8707-25.749 18.207-5.903 11.952-5.877 11.623-2.099 26.02 3.212 12.244 1.236 18.526-7.623 24.233-7.014 4.518-8.775 10.503-3.662 12.439 3.791 1.436 0.268 3.794-3.713 2.486-5.81-1.91-6.351-8.97-1.105-14.436 2.231-2.324 2.231-2.324-0.336-1.32-4.197 1.642-6.919 4.836-5.475 6.425 1.625 1.789 0.73901 2.228-1.673 0.829-4.523-2.621-2.705-7.803 3.483-9.933 3.179-1.094 3.179-1.094-1.22-1.447-13.195-1.058-15.691-15.717-2.629-15.437 2.048 0.042984 2.048 0.042984-0.45902 1.156-6.967 3.09-2.677 11.625 4.892 9.733 4.188-1.048 4.982-2.823 2.348-5.255-3.082-2.847-5.257-9.284-6.289-18.616-1.7-15.382-8.296-28.927-11.82-24.275-2.1003 2.7724-1.9249 0.9227 0.33362-3.5182 2.1654-4.2579 2.218-9.4938 0.095398-9.4938-0.8624 0-3.7058 6.8549-4.0293 9.7142-0.16901 1.4935-0.56702 2.8753-0.88451 3.0708-0.3174 0.19539-0.070206 0.73819 0.5495 1.2061 0.6196 0.468 0.8465 0.85091 0.5041 0.85091-1.4429 0-3.0632-1.8078-2.3009-2.5671 1.0492-1.0452 0.94119-3.5941-0.1524-3.5941-1.3098 0-1.8141 1.1577-0.95389 2.1901 0.59628 0.7157 0.53 0.9782-0.3305 1.3071-1.7101 0.65361-4.3305-0.56319-4.5537-2.1145-0.10941-0.7605-0.4596-1.3827-0.77809-1.3827-0.3186 0-0.57921-0.30879-0.57921-0.6864 0-0.37749 0.41121-0.52919 0.9138-0.3371 0.50261 0.19211 1.0794 0.08252 1.2817-0.2437 0.75601-1.2184 1.5756-0.5786 0.8909 0.69562-1.4609 2.7191-0.054291 3.4316 1.9627 0.99419 1.0389-1.2555 2.3121-2.2827 2.8293-2.2827s0.82451-0.3488 0.683-0.7751c-0.1787-0.53821-2.5255-0.8699-7.6775-1.0851-7.6907-0.3213-10.656-1.1994-12.039-3.5653-0.534-0.91321-0.63751-0.9303-0.6535-0.10811-0.037903 1.9568 3.9074 4.6161 8.628 5.8156 3.6039 0.91571-5.735 5.9988-16.889 9.1923-6.3572 1.8202-7.2987 2.2788-9.3726 4.5655-3.0898 3.4066-3.0014 3.528 2.2075 3.0315 8.2395-0.7854 10.22-0.70821 11.503 0.4483 1.6262 1.4659 2.2023 1.3603 1.7072-0.313-0.37601-1.2711-0.26028-1.2366 1.3008 0.38789 0.9425 0.98071 3.0002 2.3677 4.5727 3.0822 2.3063 1.0479 2.5964 1.3398 1.5007 1.5098-0.74722 0.11589-2.2879-0.26901-3.4238-0.85532-3.8358-1.98-5.7223-2.0668-10.567-0.48608-2.4897 0.81229-5.0067 1.4769-5.5935 1.4769-0.99149 0-3.3199 1.7712-2.8905 2.1992 0.1055 0.10501 1.7296-0.338 3.609-0.98389 4.3554-1.4974 7.7821-1.6505 5.9437-0.2655-0.66461 0.5004-1.9251 0.9144-2.8012 0.9204-3.0518 0.018005-3.2036 0.94301-0.29498 1.799 2.6229 0.771 3.0823 0.72 6.6732-0.746 5.6729-2.3147 9.1033-2.5534 14.347-0.998 9.1275 2.708 15.965 0.14801 15.965-5.9764 0-1.9797 1.46-1.775 1.7581 0.24651 0.2516 1.7079-2.6304 6.7199-4.0945 7.1199-4.2952 1.173-7.9477 1.736-9.3966 1.447-1.7015-0.339-1.7015-0.339-1.1189 3.185 0.5246 3.173 0.41449 3.925-1.1052 7.554-5.4216 12.947-4.8153 28.754 1.4813 38.62 2.3855 3.738 2.3922 4.252 0.025894 1.994-2.145-2.047-2.1169-2.168-0.98579 4.225 0.79819 4.511 1.6083 6.846 1.6083 4.635 0-0.52699 0.4202-1.305 0.9337-1.729 0.7787-0.64401 0.93381-0.56 0.93381 0.50699 0 0.70401-0.30652 1.468-0.68121 1.699-0.6814 0.41901-0.5329 2.035 0.3891 4.234 0.78421 1.87-1.0438 0.90399-2.1911-1.158-1.8005-3.235-2.1037-3.215-13.729 0.92-15.751 5.603-15.687 5.551-14.391 11.59 0.35159 1.639 0.9596 7.723 1.351 13.521 0.88641 13.128 0.78873 12.675 3.4146 15.806 1.2006 1.431 2.1829 3.243 2.1829 4.025 0 3.111 2.046 4.473 4.6435 3.091 3.59-1.909 3.7693-2.46 1.2776-3.924-2.5366-1.491-3.4311-3.377-3.4311-7.236 0-1.501-0.38898-3.924-0.8645-5.385-6.2805-19.302-4.2196-23.426 11.706-23.428 5.4494-9.92e-4 9.7301-0.17799 9.5126-0.395-0.21759-0.217-3.4156-0.407-7.1069-0.424-3.6912-0.016998-6.2211-0.13899-5.622-0.272 0.59918-0.13199 1.0894-0.52899 1.0894-0.88199 0-0.36301 0.47229-0.45201 1.0894-0.205 0.59909 0.23999 1.4395 0.578 1.8675 0.75299 0.45428 0.185 0.78626-0.16299 0.79788-0.83499 0.018585-1.085 0.074982-1.079 0.9722 0.088989 0.91771 1.195 0.98329 1.199 1.7967 0.106 0.6752-0.907 1.0955-1 2.0993-0.465 2.0568 1.096 2.8983 0.80501 1.6482-0.571-1.4756-1.624-0.3092-1.595 1.7836 0.044998 2.004 1.57 2.1844 0.68001 0.2323-1.147-1.0318-0.965-1.9316-1.235-3.3692-1.009-1.0787 0.16901-2.124 0.046005-2.3228-0.27499-0.5271-0.849 2.4128-1.426 4.0998-0.80499 0.79411 0.293 1.794 0.40999 2.2219 0.26 0.42799-0.14999 0.7782 0.028992 0.7782 0.399 0 0.369 0.4201 0.672 0.9337 0.672s0.93379 0.295 0.93379 0.65601c0 0.36099 0.28011 0.48399 0.62241 0.27399 1.0027-0.618 0.7572-6.908-0.3112-7.973-0.5136-0.511-0.9012-1.577-0.8615-2.369 0.063507-1.267 0.10831-1.291 0.3734-0.19899 0.1656 0.68199 0.8822 1.868 1.5925 2.635 0.71031 0.767 1.0859 1.395 0.8349 1.395-0.2511 0-0.23851 0.349 0.027908 0.77499 0.26639 0.426 0.41019 1.348 0.3194 2.048-0.090698 0.70099 0.4424 1.817 1.1847 2.481 2.7048 2.419 0.5639-5.249-2.7768-9.946-1.7446-2.452-2.9581-4.784-2.269-4.36 0.30351 0.187 0.64182-0.27 0.75191-1.016 0.11-0.746 0.5525-1.471 0.9832-1.613 0.59911-0.196 0.6356 0.13 0.15561 1.387-1.3824 3.622 0.58789 4.011 2.4221 0.478 0.66411-1.279 2.6306-3.71 4.3702-5.402 1.7394-1.692 3.1624-3.576 3.1624-4.185 0-0.61 0.27-1.109 0.599-1.109s0.89999-1.116 1.269-2.48c0.591-2.188 1.867-3.479 1.867-1.889 0 0.918-1.455 3.968-2.327 4.878-0.43201 0.451-0.785 1.204-0.785 1.674 0 0.46899-0.72 1.628-1.601 2.574-2.1105 2.268-7.1198 9.278-7.0933 9.926 0.011398 0.28 1.2692-0.866 2.7951-2.546 3.3048-3.639 4.3352-3.396 1.6192 0.382-2.5562 3.555-3.5339 8.011-1.1306 5.153 2.0311-2.416 2.6065-1.795 1.0381 1.119-1.2857 2.39-1.5904 4.151-0.71802 4.151 0.28171 0 1.1417-1.255 1.9112-2.79 0.7753-1.547 1.8383-2.79 2.3853-2.79 0.88501 0 0.88 0.117-0.042999 1.134-0.567 0.623-1.031 1.544-1.031 2.046 0 0.50201-0.34999 1.266-0.7778 1.698-0.62299 0.629-0.5911 0.93199 0.1608 1.519 1.005 0.786 0.93901 3.524-0.084991 3.524-0.33899 0-0.44299-0.27901-0.2314-0.62001 0.21159-0.34099 0.087997-0.62-0.27449-0.62-0.36261 0-0.6593 0.83701-0.6593 1.86 0 1.864 0.88998 2.54 1.4272 1.085 0.15802-0.42601 0.5 0.061996 0.76102 1.085 0.93698 3.677 2.464 3.484 2.511-0.31799 0.016998-1.359 0.39902-2.82 0.85101-3.247 0.676-0.63899 0.746-0.256 0.398 2.17-0.276 1.927-0.194 2.945 0.239 2.945 0.36301 0 0.66901-0.48801 0.679-1.085 0.016998-0.985 0.082001-0.978 0.7 0.082001 0.37399 0.643 0.65701 2.317 0.62799 3.721-0.68599 32.935-6.028 57.419-13.174 60.377-2.863 1.185-2.8009 1.022-1.2109 3.164 2.2034 2.969 7.0775-0.016998 9.3031-5.7zm5.603-23.855c0-0.70799 0.296-1.47 0.659-1.693 0.37801-0.233 0.489-1.174 0.26201-2.207-0.26502-1.199-0.151-1.801 0.342-1.801 0.478 0 0.601-0.54799 0.349-1.55-0.477-1.894 0.28299-2.022 1.402-0.237 0.59 0.942 0.633 1.503 0.149 1.984-0.37001 0.369-0.67302 1.339-0.67302 2.154 0 0.81599-0.56 2.193-1.245 3.06-1.167 1.478-1.245 1.496-1.245 0.28999zm32.033-41.086c-0.599-0.965 0.17499-1.482 1.1-0.733 0.436 0.352 1.353 0.778 2.038 0.946 0.83099 0.20401 0.584 0.32901-0.74101 0.377-1.093 0.039001-2.171-0.226-2.397-0.59zm9.561-1.334c0.332-0.33 1.123-0.491 1.759-0.357 0.856 0.181 0.699 0.33699-0.604 0.601-1.136 0.231-1.545 0.145-1.155-0.244zm2.759-1.532c0.599-0.15601 1.579-0.15601 2.179 0 0.599 0.15601 0.108 0.284-1.09 0.284s-1.688-0.12799-1.089-0.284zm-25.459-0.809c-1.372-0.551-2.418-1.74-1.946-2.211 0.146-0.14499 1.365 0.254 2.708 0.888 1.343 0.63501 2.863 1.308 3.376 1.497 0.51401 0.18999 0.094009 0.349-0.93399 0.35399-1.027 0.005005-2.469-0.232-3.204-0.528zm46.157-0.624c-0.48999-0.789 0.95201-0.789 2.179 0 0.759 0.489 0.67801 0.603-0.431 0.61099-0.75 0.005005-1.537-0.26999-1.748-0.61099zm-11.622-0.497c-1.599-0.103-3.244-0.59099-3.656-1.085-0.89699-1.076-0.218-1.134 2.443-0.211 1.474 0.51199 2.432 0.50099 3.75-0.042999 1.5-0.619 2.135-0.535 4.173 0.55299 2.168 1.157 2.249 1.283 0.82501 1.283-0.86801 0-1.902-0.323-2.298-0.718-0.452-0.449-1.022-0.507-1.526-0.155-0.442 0.31-2.112 0.479-3.711 0.37599zm7.806-2.256c-1.072-0.465-2.139-1.151-2.371-1.526-0.58499-0.942-0.116-0.862 2.926 0.50301 1.451 0.651 3.059 1.326 3.572 1.501 0.524 0.17801 0.25101 0.328-0.62199 0.34201-0.856 0.013-2.433-0.355-3.505-0.82001zm2.571-1.924c-1.416-1.19-1.585-1.527-0.69701-1.392 0.64401 0.097992 1.588 0.80699 2.099 1.574 1.193 1.793 0.901 1.755-1.402-0.18201zm-71.276-3.891c0-0.74899 1.181-1.623 1.613-1.193 0.15601 0.15601-0.14299 0.63699-0.664 1.068-0.59198 0.48901-0.94899 0.53601-0.94899 0.125zm1.02-6.003c0.19699-0.51201 0.46799-0.93001 0.603-0.93001 0.134 0 0.244 0.418 0.244 0.93001 0 0.511-0.27101 0.92999-0.60301 0.92999-0.33099 0-0.44099-0.41899-0.24399-0.92999zm-4.1327-5.143c0-0.328 0.4525-0.97 1.0056-1.427 0.8699-0.71899 0.9749-0.674 0.77811 0.338-0.23441 1.205-1.7837 2.151-1.7837 1.089zm-0.5292-5.088c0.64839-1.853 1.7921-2.56 1.7544-1.085-0.021912 0.86-1.4661 2.945-2.0395 2.945-0.20129 0-0.072891-0.83701 0.28511-1.86zm-1.9577-2.635c0.001694-0.427 0.72449-1.612 1.6062-2.636 1.0132-1.175 1.4692-1.439 1.2392-0.71701-0.20001 0.62901-0.533 1.814-0.7399 2.635-0.3849 1.528-2.111 2.116-2.1055 0.718zm-0.9891-3.721c0.19949-0.426 0.521-1.207 0.7144-1.736 0.1934-0.528 0.9243-1.317 1.6244-1.752 0.7-0.43501 1.1505-0.561 1.0012-0.27901-0.14929 0.28101-0.66139 1.419-1.1379 2.527-0.47661 1.109-1.2486 2.015-1.7157 2.015-0.46698 0-0.68588-0.34801-0.48639-0.77501zm44.847-1.746c-0.67-1.08 0.093002-1.309 0.94701-0.284 0.491 0.59 0.53799 0.94501 0.125 0.94501-0.364 0-0.84601-0.29701-1.072-0.66101zm-45.725-1.974c0.004898-1.208 2.9376-4.555 3.5025-3.997 0.27751 0.27499 0.2269 0.69299-0.1125 0.92999-0.33939 0.23801-0.9556 1.199-1.3693 2.137-0.7693 1.744-2.0262 2.323-2.0207 0.92999zm0.0193-4.629c-0.012604-0.773 0.5444-1.675 1.276-2.065 1.8845-1.005 1.9663-0.48601 0.2527 1.603-1.4201 1.731-1.5076 1.757-1.5287 0.46201zm-0.0223-3.139c0-0.67999 3.8409-3.959 4.2089-3.593 0.3579 0.357-3.055 4.075-3.7401 4.075-0.25781 0-0.46881-0.21701-0.46881-0.48201zm0-2.928c0-0.574 2.4837-2.79 3.1268-2.79 0.35031 0 0.17801 0.69699-0.38289 1.55-0.87511 1.33-2.7439 2.175-2.7439 1.24zm1.8674-9.611c0-0.341 0.28021-0.62001 0.6225-0.62001 0.34241 0 0.62251 0.27901 0.62251 0.62001s-0.28011 0.62-0.62251 0.62c-0.34228 0-0.6225-0.27899-0.6225-0.62zm47.31-1.198c0-0.724 2.442-1.537 2.986-0.995 0.46599 0.46498-1.065 1.55-2.208 1.564-0.42799 0.005005-0.778-0.25099-0.778-0.56898zm-46.828-0.803c0.41411-0.49699 0.57539-1.08 0.3584-1.296-0.595-0.593 1.0372-2.285 2.1934-2.274 0.8197 0.008011 0.849 0.11301 0.15329 0.552-0.4729 0.298-0.8931 1.197-0.93368 1.997-0.046707 0.92-0.52501 1.542-1.2991 1.69-1.0109 0.194-1.0935 0.076996-0.4723-0.66901zm45.583-1.958c0-0.99599 1.729-3.218 2.345-3.013 1.093 0.36301 0.94899 1.428-0.32201 2.389-1.065 0.80499-2.023 1.101-2.023 0.62399zm-46.065-2.241c0-0.341 0.3529-0.62 0.784-0.62 1.0986 0 2.6373-2.473 1.5557-2.5-0.5237-0.014008-0.4557-0.271 0.205-0.776 0.54361-0.41499 1.1517-1.173 1.3514-1.685 0.20138-0.51599 0.38498-0.084 0.41229 0.96899 0.033997 1.313-0.48959 2.413-1.6968 3.565-1.8442 1.76-2.6116 2.068-2.6116 1.047zm43.886-1.861c-0.211-0.341-0.087997-0.62 0.27499-0.62 0.923 0 0.826-1.689-0.119-2.069-0.547-0.22-0.56099-0.327-0.043991-0.362 1.406-0.093994 2.805 1.856 2.012 2.807-0.84799 1.019-1.59 1.104-2.124 0.244zm-0.933-5.2701c0-0.51149 0.42-0.9301 0.933-0.9301 1.121 0 1.226-1.3216 0.187-2.3562-1.047-1.043 0.186-0.8932 1.634 0.19849 1.063 0.80101 1.104 1.0793 0.362 2.4606-0.908 1.6903-3.116 2.1353-3.116 0.6272zm-55.75-6.7699c-0.66411-0.48369-1.0678-1.0092-0.89711-1.1679 0.5042-0.4687 3.1115 0.7104 3.1115 1.4072 0 0.8853-0.7872 0.8002-2.2144-0.2393zm-25.319-0.71c-0.6442-0.64171 0.5318-3.6811 1.4244-3.6811 1.1572 0 1.5137 1.9872 0.5614 3.1301-0.79428 0.95329-1.4103 1.1242-1.9858 0.551zm24.334-2.1218c-1.4696-1.231-1.4696-1.231 0.55469-0.55901 2.1934 0.7281 3.271 1.79 1.8164 1.79-0.4958 0-1.5628-0.55399-2.3711-1.231zm-0.2483-1.9076c-0.22459-0.36209-1.1516-0.94109-2.0599-1.2868-1.6514-0.6286-1.6514-0.6286-0.095093-1.49 1.4016-0.77571 1.4325-0.8698 0.31122-0.94679-1.5746-0.10811 2.6043-1.3274 4.3575-1.2714 3.2863 0.1049 8.1342 1.1368 5.7581 1.2256-2.5633 0.095901-3.2852 1.3274-0.77811 1.3274 0.8559 0 1.5563 0.2791 1.5563 0.6201s-0.7704 0.6299-1.7119 0.64201c-0.9415 0.012085-2.4122 0.42079-3.2681 0.90808-1.8658 1.0624-3.5113 1.1723-4.07 0.2718zm2.6108-2.7568c0.5665-1.2167 0.54961-1.5453-0.079391-1.5453-1.1017 0-2.3918 1.6637-1.902 2.453 0.6337 1.0213 1.205 0.75961 1.9814-0.90768zm61.842 2.8614c0-0.30449 0.42-0.71429 0.933-0.9106 1.541-0.58879 1.058-1.6423-0.933-2.039-2.558-0.50961-2.356-1.4571 0.31099-1.4571 2.516 0 2.933-1.2635 0.888-2.6904-1.668-1.1636-0.56599-1.8511 1.632-1.0186 1.584 0.59981 1.667 0.81641 1.309 3.4148-0.38101 2.7744-0.38101 2.7744 2.097 2.7744 1.363 0 2.478 0.27901 2.478 0.6201 0 0.341-1.104 0.62-2.454 0.62-1.349 0-2.626 0.27901-2.838 0.62-0.47699 0.76881-3.423 0.82591-3.423 0.066406zm-50.384-8.5555c0.021011-0.617 0.698-2.5169 1.5044-4.222 1.7107-3.6173 2.3315-1.466 0.6996 2.4244-1.0184 2.4278-2.26 3.4404-2.204 1.7976zm-20.707 141.09c-0.22971-4.723-1.6585-6.155-3.6214-3.63-1.6653 2.142-1.54 3.035 0.7569 5.396 2.7412 2.817 3.0773 2.61 2.8645-1.766zm98.757-63.914c2.237-3.182-5.638-13.355-14.484-18.707-6.537-3.955-8.246-0.93201-2.343 4.145 3.31 2.846 7.213 9.154 7.213 11.657 0 3.221 7.746 5.562 9.614 2.905zm-7.438-7.308c-0.618-1.367-2.798-4.168-4.843-6.224s-3.564-3.891-3.376-4.079c0.95001-0.946 10.401 10.37 10.401 12.454 0 1.164-1.23-0.048996-2.182-2.151zm-45.82 4.036c-5.44-2.945-3.347-9.439 4.666-14.48 8.745-5.502 10.845-17.92 3.426-20.265-0.646-0.205-1.175-0.63199-1.175-0.94998 0-0.83 2.105-0.71402 2.988 0.16598 1.227 1.222 0.847-0.03299-0.65399-2.158-1.82-2.577-2.883-3.401-5.01-3.883-1.385-0.315-1.597-0.56902-1.035-1.243 0.58402-0.702-0.12399-0.87799-4.122-1.029-3.382-0.12799-4.912-0.43399-5.108-1.022-0.21201-0.64 0.07399-0.715 1.195-0.317 0.81099 0.28799 3.225 0.442 5.365 0.34299 3.491-0.16298 4.04-0.018997 5.362 1.401 0.81 0.871 1.834 1.583 2.276 1.583 0.55699 0 0.46799-0.369-0.289-1.202-0.629-0.692-1.093-2.18-1.093-3.503 0-2.406-0.99701-3.876-4.064-5.992-1.725-1.1895-1.725-1.1895 0.60901-0.799 1.844 0.30901 2.335 0.194 2.335-0.5488 0-1.2126-6.327-4.1377-9.844-4.5512-1.482-0.17419-2.446-0.5526-2.153-0.84459s1.494-0.25391 2.68 0.084991c1.183 0.3378 3.342 0.6141 4.8 0.6141 2.078 0 2.649 0.22711 2.649 1.0541 0 0.8081 0.171 0.8839 0.733 0.32469 1.1-1.0962-1.042-3.1337-3.775-3.591-4.484-0.7503-4.885-1.1064-1.777-1.5777 2.788-0.42279 7.987-3.6508 5.88-3.6508-0.496 0-2.195-0.5696-3.775-1.2659-2.182-0.961-3.165-1.1103-4.085-0.62-2.482 1.323-3.519 0.6185-1.144-0.77679 3.144-1.8464 3.214-3.6034 0.11699-2.9076-1.224 0.2748-2.717 0.94301-3.318 1.4849-1.938 1.7476-2.22 1.0459-0.357-0.89101 1.025-1.0655 2.19-1.7288 2.697-1.5352 1.027 0.3925 3.202-1.3464 3.202-2.56 0-0.6225-0.383-0.6738-1.597-0.2139-1.971 0.7466-2.138 0.7486-2.138 0.026398 0-0.31799 0.58099-0.76199 1.292-0.98669 2.196-0.69441 0.826-1.0424-1.542-0.3913-1.228 0.3378-3.782 1.9325-5.676 3.5437-1.893 1.6112-3.622 2.7505-3.841 2.5318-0.76-0.7568 5.346-6.062 7.728-6.714 1.292-0.35399 2.556-0.96129 2.807-1.3496 1.685-2.6011-4.05-4.2001-8.696-2.4245-0.683 0.26138-0.843 0.14029-0.51399-0.38982 0.26199-0.4229 1.078-1.0107 1.814-1.3062 0.95401-0.3837 1.046-0.54851 0.319-0.5766-3.046-0.1176-5.15 1.6676-6.828 5.7942-2.2731 5.5897-0.174 6.5698 3.528 1.6472 2.625-3.4905 8.093-5.7018 9.298-3.7604 0.229 0.3701-0.53 0.6201-1.882 0.6201-3.399 0-10.891 7.2972-9.126 8.8884 1.489 1.3417 2.166 1.3019 3.538-0.2076 0.619-0.6821 1.453-1.2401 1.851-1.2401 0.399 0 1.665-0.83531 2.813-1.8563 1.148-1.0209 2.219-1.7252 2.379-1.5651 0.54199 0.539-1.376 2.3074-4.972 4.5846-2.759 1.7471-3.443 2.4715-3.004 3.1797 0.454 0.7305 0.72699 0.7605 1.342 0.14729 1.182-1.177 2.764-1.0337 1.769 0.16022-0.426 0.51158-1.151 0.93008-1.61 0.93008-0.63701 0-0.53302 0.69881 0.439 2.9453 1.366 3.1547 2.686 9.9889 3.385 17.517 0.882 9.517 6.324 20.588 8.467 17.225 0.873-1.371 0.58202-2.042-1.386-3.201-2.095-1.232-2.104-2.147-0.010986-1.032 1.004 0.536 1.294 0.51201 1.278-0.104-0.036011-1.393-2.412-3.742-3.402-3.364-0.51399 0.19701-0.935 0.08699-0.935-0.243 0-1.146 2.902-0.593 4.173 0.795 2.97 3.246 3.091 6.568 0.37201 10.231-5.009 6.748-17.172 4.35-16.176-3.189 0.33699-2.547 0.33699-2.547-0.86301-1.083-4.4678 5.448 7.689 12.778 15.043 9.07 5.888-2.97 8.923-7.1 7.357-10.014-0.98399-1.832-0.142-2.784 1.039-1.176 2.124 2.894 0.55402 7.061-3.73 9.892-1.795 1.187-3.662 2.637-4.15 3.222-0.487 0.58499-2.616 1.837-4.729 2.782-3.876 1.732-5.183 3.123-5.183 5.513 0 1.136 0.244 1.025 1.907-0.86101 1.184-1.343 4.356-3.361 8.364-5.321 9.13-4.463 12.147-8.187 9.995-12.334-1.187-2.286-0.30602-2.594 1.138-0.39899 2.022 3.073-0.47401 9.06-4.681 11.227-4.665 2.403-10.498 9.096-10.498 12.047 0 3.056 3.416 6.771 6.225 6.771 0.513 0 0.20201-0.396-0.692-0.87999zm-6.311-46.957c-0.94199-0.31999-1.712-0.976-1.712-1.459 0-1.146 0.89-1.121 1.867 0.050995 0.88101 1.058 2.944 1.199 5.171 0.356 1.507-0.56999 6.658 0.29199 6.656 1.115-0.001999 0.62698-10.106 0.573-11.982-0.063004zm-3.58-14.407c0-0.53851 0.541-0.95181 1.245-0.95181 0.685 0 1.245 0.1297 1.245 0.28812 0 0.1586-0.56 0.58688-1.245 0.952-0.993 0.52969-1.245 0.4715-1.245-0.2883zm4.241-1.3754c0.449-0.1792 0.98599-0.1571 1.193 0.048889 0.207 0.2061-0.161 0.3526-0.81699 0.32571-0.72501-0.029816-0.87302-0.17671-0.37601-0.3746zm64.501 61.455c3.015-3.003-1.364-9.291-11.236-16.134-3.919-2.717-4.475-2.995-9.262-4.639-2.266-0.77699-2.689-1.083-1.556-1.123 4.889-0.17099 13.702 4.966 20.516 11.961 4.026 4.132 7.496 3.541 7.496-1.276 0-4.399-9.573-11.649-19.92-15.086-2.225-0.73999-4.667-1.742-5.425-2.228-1.881-1.206-2.049-1.138-2.02 0.821 0.02301 1.499 0.57001 1.963 4.514 3.828 5.135 2.429 8.781 4.891 6.044 4.082-0.85599-0.254-1.999-0.84599-2.539-1.317-0.541-0.472-1.451-0.857-2.023-0.857-0.573 0-1.041-0.228-1.041-0.505 0-0.862-4.605-2.786-4.858-2.031-0.12399 0.37201-0.592 0.67601-1.041 0.67601-0.448 0-0.97499 0.41299-1.169 0.91899-0.20201 0.524-0.767 0.76201-1.312 0.554-3.202-1.224 0.45401 4.476 4.028 6.28 4.296 2.169 11.463 8.466 13.421 11.794 2.727 4.637 5.444 6.212 7.383 4.281zm-12.181-13.318c-1.47-1.271-1.47-1.271 0.554-0.29399 1.99 0.961 2.557 1.565 1.469 1.565-0.304 0-1.215-0.57199-2.023-1.271zm-3.784-1.985c-0.964-0.882-2.931-2.064-6.089-3.657-1.498-0.755-1.808-1.106-0.993-1.123 0.653-0.013992 2.105 0.672 3.227 1.525s2.269 1.556 2.548 1.564c0.83899 0.022995 3.682 2.438 2.888 2.453-0.40401 0.006989-1.115-0.33501-1.581-0.76201zm-10.824-1.455c0.87099-0.33299 0.87399-0.554 0.020996-2.197-1.218-2.346-3.588-3.507-4.917-2.408-1.188 0.982-1.241 2.495-0.08699 2.495 0.476 0 1.526 0.54901 2.334 1.22 1.738 1.441 1.455 1.346 2.649 0.89zm34.49-1.614c2.467-2.457-1.498-6.763-10.347-11.237-6.641-3.357-15.051-5.334-15.051-3.538 0 0.351 0.40399 0.638 0.897 0.638 0.49399 0 1.068 0.27499 1.277 0.612 0.242 0.39-0.651 0.472-2.453 0.226-5.262-0.718-3.514 1.206 3.186 3.506 6.759 2.321 12.877 5.376 16.947 8.463 2.899 2.199 4.328 2.541 5.544 1.33zm-12.673-8.227c-0.66499-0.50099-0.91199-0.91899-0.549-0.92999 0.362-0.011002 1.202 0.39 1.867 0.89099 0.66499 0.5 0.912 0.91901 0.549 0.93001-0.362 0.011002-1.203-0.39-1.867-0.89101zm-6.189-2.833c-2.054-0.989-3.392-1.807-2.973-1.818 0.81999-0.020996 7.642 3.071 7.642 3.464 0 0.47299-1.002 0.11998-4.669-1.646zm-12.616 4.772c1.308-2.048-1.814-6.609-4.524-6.609-0.673 0-1.223-0.27901-1.223-0.62001 0-0.90201-1.195-0.75899-2.224 0.26601-1.138 1.134-1.118 1.554 0.14101 2.94 1.374 1.512 2.083 1.431 2.083-0.239 0-1.254 0.084991-1.287 0.98799-0.388 1.727 1.72-0.381 4.048-3.323 3.668-0.42799-0.056-0.778 0.18201-0.778 0.52901 0 1.722 7.795 2.12 8.86 0.453zm-9.237-7.591c0.232-0.604 0.093002-0.88701-0.362-0.73599-0.93001 0.30899-1.442 1.718-0.62401 1.718 0.334 0 0.778-0.44202 0.98601-0.98201zm44.575-2.158c4.304-0.69199 7.083-2.046 6.679-3.255-1.072-3.21-29.76-4.312-30.807-1.184-0.187 0.55899 1.353 0.783 5.868 0.85199 6.121 0.093018 6.121 0.093018 0.207 0.53001-3.337 0.246-6.645 0.18401-7.592-0.143-3.048-1.051-4.159 0.36-1.336 1.697 4.17 1.977 18.921 2.799 26.981 1.503zm-7.929-3.506c0.94701-0.142 2.347-0.138 3.113 0.009003 0.765 0.147-0.009003 0.26399-1.721 0.259-1.712-0.005005-2.338-0.125-1.392-0.268zm-4.521-4.198c13.636-1.042 28.012-5.679 28.012-9.035 0-2.1233-8.042-2.274-14.94-0.27902-1.883 0.54402-7.485 1.677-12.45 2.518-14.254 2.413-18.801 5.756-5.027 3.696 3.445-0.51601 6.756-0.92902 7.357-0.91901 2.212 0.039001-0.686 1.049-4.197 1.464-7.533 0.89101-8.715 1.155-8.715 1.947 0 0.93901 1.037 1.381 2.801 1.193 0.685-0.072998 3.906-0.336 7.159-0.58501zm7.47-5.028c1.883-0.46899 3.844-0.75 4.357-0.623 0.51401 0.12599 0.32001 0.26201-0.42999 0.30101-0.75 0.039993-1.537 0.351-1.749 0.69199-0.211 0.341-1.558 0.59-2.993 0.552-2.609-0.069-2.609-0.069 0.815-0.922zm-6.537-3.045c12.645-2.1116 30.854-9.136 35.098-13.54 5.202-5.3977-0.59001-5.4682-16.13-0.19641-6.447 2.1869-20.777 5.9907-22.57 5.9907-0.50299 0-1.999 0.46768-3.325 1.0392-1.325 0.57159-2.926 1.1318-3.557 1.245-0.63 0.1131-1.729 0.6123-2.442 1.1093-1.904 1.329 0.11299 1.9459 2.443 0.74701 0.97301-0.5004 3.729-1.1134 6.126-1.3623 5.249-0.5451 6.381-0.73941 8.404-1.4424 1.612-0.56059 6.68-2.0166 10.737-3.085 1.284-0.33801 2.469-0.397 2.634-0.1311 0.30299 0.4879-6.067 2.5004-7.914 2.5004-0.548 0-1.09 0.26291-1.204 0.5842-0.177 0.5005-7.407 2.1615-14.836 3.4087-3.382 0.5677-3.869 1.0571-2.961 2.9726 0.597 1.261 1.119 1.566 2.332 1.36 0.86-0.146 4.084-0.686 7.165-1.2zm-48.562-7.11c1.202-2.3787 2.186-4.429 2.186-4.5561 0-0.5162-3.739-0.29401-4.072 0.24199-0.19701 0.31801-1.113 0.5665-2.034 0.55231-2.555-0.039703 1.985-2.3932 4.684-2.4283 2.319-0.030106 4.097-2.2357 2.576-3.1956-0.657-0.41489-0.607-0.53378 0.231-0.5412 0.59-0.00528 1.508-0.84659 2.039-1.8697 1.161-2.2358 0.26999-2.512-2.876-0.89151-1.533 0.7894-1.743 1.1338-1.138 1.8602 0.577 0.69232 0.57001 1.0993-0.031998 1.8216-1.08 1.2955-2.026 1.1627-1.584-0.2225 0.439-1.3789-1.11-2.8604-2.455-2.3466-0.517 0.198-0.94099 0.089706-0.94099-0.24069 0-0.6382 0.072998-0.6656 2.49-0.9321 1.68-0.1853 5.962-1.6802 6.582-2.2981 0.21001-0.20859-0.457-0.81099-1.482-1.3387-1.94-0.9993-3.887-0.067993-2.965 1.4181 0.20599 0.33241 0.11 0.7677-0.215 0.96739-0.324 0.19962-0.765 0.079422-0.98001-0.26718-0.215-0.34662-1.005-0.63121-1.755-0.63251-1.152-0.001999-1.025-0.2095 0.81499-1.3353 2.57-1.5725 1.57-2.2827-1.203-0.85431-1.078 0.5553-1.91 0.7067-1.91 0.3477 0-0.34979-0.315-0.636-0.70001-0.636-0.44998 0-0.56299 0.68231-0.31699 1.9109 0.449 2.2325-0.464 4.2897-1.902 4.2897-0.907 0-0.91299-0.1093-0.059998-1.0851 0.522-0.59688 0.82901-1.4132 0.683-1.8141-0.724-1.9789 1.095-5.9346 2.249-4.8938 0.892 0.8038 1.467 0.8754 2.844 0.3541 0.949-0.35941 2.219-0.49739 2.822-0.3066 1.102 0.34839 3.096-1.1081 3.096-2.2615 0-0.67551-2.338-0.1304-3.539 0.82501-0.47099 0.37399-1.2 0.3411-2.011-0.090912-0.69899-0.37289-2.048-0.49249-2.996-0.26559-1.725 0.41251-1.725 0.41251-0.25902-1.1792 1.852-2.0111 1.255-3.1408-1.357-2.5692-1.755 0.3837-1.867 0.32471-1.11-0.5838 1.908-2.2895 6.027-0.78769 5.027 1.8326-0.55 1.4411-0.539 1.4445 3.382 1.0798 4.803-0.4467 5.636 0.33849 3.126 2.9479-1.496 1.5551-1.578 1.8098-0.584 1.8098 0.636 0 1.612 0.4102 2.168 0.91161 0.908 0.8183 1.186 0.64409 2.712-1.6999 1.927-2.9614 1.929-4.1604 0.006989-5.1147-3.865-1.9197 8.263-6.2033 30.605-10.809 17.22-3.5501 26.317-7.7858 23.301-10.849-0.754-0.7662-7.535 0.6124-10.551 2.1452-1.242 0.63092-4.198 1.6233-6.57 2.2052-2.372 0.58191-5.433 1.5578-6.802 2.1686-9.484 4.2306-13.182 5.6395-18.675 7.1145-8.089 2.1723-10.71 3.2139-13.477 5.3553-1.25 0.9671-3.211 1.9361-4.358 2.1533-2.282 0.4323-1.052-0.9859 2.446-2.82 2.233-1.1714 0.981-2.0886-2.27-1.6621-2.884 0.37831-2.884 0.37831-1.082-0.6273 1.189-0.66339 2.552-0.88429 4.006-0.64929 1.526 0.2467 3.94-0.2009 7.847-1.4553 3.104-0.99629 8.024-2.5559 10.934-3.4658 8.742-2.7332 18.761-8.4444 17.324-9.8756-0.175-0.1745-2.947 0.96628-6.159 2.5352-8.38 4.0932-12.795 5.6425-22.992 8.0692-19.789 4.7092-23.033 7.1312-23.033 17.198 0 4.74 0.13101 5.3154 1.401 6.142 2.351 1.5309 4 1.8232 4.95 0.8774 0.73601-0.7334 1.063-0.74129 2.013-0.048798 1.186 0.8633 0.893 1.2377-3.958 5.0675-0.871 0.687-0.78801 0.92171 0.73 2.0669 0.94099 0.71048 1.716 1.8964 1.72 2.6353 0.009995 1.5112 0.638 4.1337 0.99 4.1337 0.127 0 1.215-1.9462 2.418-4.3249zm-9.33-14.897c-0.487-0.7847 0.33699-0.7847 1.556 0 0.80501 0.518 0.789 0.60242-0.119 0.61061-0.579 0.005203-1.225-0.26961-1.437-0.61061zm0.665-3.6521c-0.20898-0.33659 0.116-0.88951 0.72301-1.2285 1.044-0.58411 1.045-0.63841 0.016006-1.0332-0.59702-0.2292-0.92201-0.6801-0.72202-1.0019 0.453-0.73102 2.119 0.56218 2.119 1.6452 0 1.116-1.665 2.3776-2.136 1.6184zm50.069-18.646c0-0.3278 1.19-0.9099 2.645-1.2933 1.455-0.3835 4.587-1.2275 6.96-1.8756 3.914-1.069 5.497-1.1505 4.579-0.2357-0.263 0.26129-13.315 3.9804-14.029 3.9972-0.084991 0.001907-0.155-0.26469-0.155-0.59259zm9.026 34.091c20.052-5.5199 32.023-10.378 37.58-15.25 1.585-1.3902 4.703-3.7297 6.928-5.1989 4.644-3.0659 9.338-7.3505 9.338-8.5241 0-0.98489-1.016-1.0518-1.603-0.1055-1.819 2.9318-20.897 9.9228-55.823 20.456-2.757 0.8315-4.824 1.7965-4.824 2.2519 0 0.4382-0.91 1.3497-2.023 2.0255-1.987 1.2069-1.995 1.2287-0.42999 1.231 0.87599 0.001297 2.136-0.4073 2.801-0.9081 0.66501-0.5007 1.65-0.9192 2.19-0.93001 0.541-0.010895 2.742-0.73189 4.893-1.6024 4.02-1.6271 7.438-1.9457 4.026-0.3752-0.994 0.4579-2.601 1.2252-3.57 1.7052-0.97 0.48-2.23 0.88-2.802 0.88899-3.468 0.054199-5.794 2.1075-4.371 3.8591 1.637 2.0151 2.015 2.0385 7.69 0.4765zm5.602-3.7319c0.21201-0.34099 1.139-0.60039 2.06-0.57638 1.496 0.038895 1.542 0.10059 0.43001 0.57638-1.729 0.74031-2.949 0.74031-2.49 0zm9.027-3.0916c0.513-0.33531 1.61-0.61401 2.438-0.6192 1.998-0.012604 1.491 0.34-1.193 0.83069-1.533 0.28011-1.902 0.2175-1.245-0.21149zm-8.996-1.7685c0.633-0.5558 7.836-3.2006 8.717-3.2006 1.335 0-1.015 1.2621-4.526 2.4314-4.216 1.4039-5.097 1.5655-4.191 0.7692zm18.956-2.4828c0-0.6451 6.22-2.5875 8.147-2.5442 1.141 0.025787 0.83 0.3013-1.3 1.1493-3.42 1.3619-6.847 2.0601-6.847 1.3949zm-22.722-0.9636c28.964-9.6951 40.281-15.191 47.777-23.203 4.985-5.3274 3.908-6.1658-3.298-2.567-5.629 2.812-17.243 7.1552-35.512 13.281-16.351 5.4825-22.626 9.9956-10.361 7.4521 1.92-0.39801 1.957-0.3714 0.772 0.55249-0.68501 0.5339-1.721 0.97961-2.302 0.99051-0.582 0.010803-1.81 0.71411-2.73 1.563-0.91899 0.8488-3.298 2.3531-5.287 3.3429-3.433 1.7087-4.057 2.5588-1.872 2.5509 0.54201-0.001907 6.308-1.7851 12.813-3.9626zm2.179-6.2648c0.856-0.4874 2.027-0.896 2.601-0.9081 0.575-0.0121 1.485-0.46031 2.023-0.99609 0.718-0.7155 18.227-7.0866 19.475-7.0866 1.983 0-1.538 1.7029-7.758 3.752-4.366 1.4381-8.217 2.8316-8.56 3.0968-0.97401 0.7547-7.365 3.0739-8.403 3.0498-0.55801-0.012894-0.30701-0.37869 0.62199-0.90779zm-105.91 5.0328c1.169-0.6456 1.2776-0.88879 0.52539-1.1764-0.52802-0.2018-1.4309 0.1687-2.037 0.83589-1.2513 1.3772-0.62222 1.5189 1.5116 0.3405zm69.234-5.0511c5.29-1.7923 11.756-3.3558 21.422-5.1798 11.898-2.2453 33.349-10.694 35.516-13.988 1.971-2.9961 0.287-3.155-5.091-0.4803-5.219 2.5954-20.36 6.9621-33.849 9.7624-17.048 3.5392-25.631 6.4193-24.21 8.1245 0.38399 0.4608 0.575 1.6707 0.42499 2.6887-0.204 1.3844-0.084991 1.6958 0.472 1.2359 0.40901-0.3382 2.8-1.3118 5.315-2.1636zm-4.874-1.0928c0.426-1.2973 10.117-4.3007 18.826-5.8348 4.538-0.79948 0.12001 0.9994-5.603 2.281-3.423 0.7668-7.855 2.0486-9.847 2.8485-2.234 0.89671-3.528 1.1672-3.376 0.70531zm21.627-5.938c0.51399-0.27539 2.615-0.8559 4.669-1.29s4.82-1.1885 6.147-1.6765c2.408-0.8858 3.932-0.62671 2.283 0.3882-1.068 0.6577-11.34 3.124-12.902 3.0979-0.93199-0.015488-0.967-0.1066-0.19699-0.51959zm17.741-4.5695c0.685-0.4015 2.926-1.3242 4.98-2.0505 2.055-0.7263 4.226-1.5353 4.825-1.7978 0.64401-0.2823 1.089-0.2151 1.089 0.1646 0 0.72371-6.258 3.2112-8.079 3.2112-0.65201 0-1.358 0.27899-1.57 0.62-0.211 0.3411-0.858 0.6116-1.437 0.6012-0.885-0.015793-0.854-0.1353 0.192-0.74869zm14.629-5.0603c0-0.26411 4.819-2.8529 5.31-2.8529 1.192 0-0.159 1.2853-2.21 2.1029-2.616 1.0427-3.1 1.1597-3.1 0.75zm-102.78 14.717c0.7619-1.6655-0.036301-5.1688-1.1776-5.1688-1.4554 0-2.7271 3.9818-1.8143 5.6808 0.8717 1.6224 2.1127 1.4101 2.9919-0.51201zm-2.035-0.0842c-0.19742-0.3181 0.25998-1.104 1.0163-1.7464 1.3492-1.1458 1.3577-1.1456 0.45219 0.012421-0.5076 0.64929-0.8296 1.3003-0.7155 1.4468 0.1141 0.14659 0.072098 0.40129-0.093292 0.5661-0.1654 0.16469-0.46231 0.039291-0.6597-0.2789zm-0.3882-2.2184c0-0.12871 0.4902-0.617 1.0893-1.0851 0.9873-0.77118 1.0094-0.74928 0.23511 0.23412-0.81329 1.0329-1.3244 1.3614-1.3244 0.851zm92.902-1.5843c8.47-2.8058 15.575-5.3824 15.788-5.7259 1.097-1.7672-1.259-1.5208-7.126 0.74571-3.523 1.3608-10.239 3.6278-14.923 5.0377-4.685 1.4099-9.008 2.9842-9.607 3.4984-1.258 1.0794-1.457 2.2502-0.311 1.8305 0.42801-0.1568 7.708-2.5807 16.179-5.3864zm-100.52 3.6786c-0.6217-0.99161-0.6217-1.4887 0-2.4802 0.43071-0.687 0.50731-1.2401 0.1716-1.2401-0.8149 0-1.8946 2.0968-1.8946 3.6795 0 0.86931 0.4017 1.2809 1.2503 1.2809 1.0944 0 1.1533-0.15451 0.47269-1.2401z"/>
</svg>
