<?xml version="1.0" encoding="UTF-8" standalone="no"?>
<!-- Created with Inkscape (http://www.inkscape.org/) -->

<svg
   xmlns:dc="http://purl.org/dc/elements/1.1/"
   xmlns:cc="http://creativecommons.org/ns#"
   xmlns:rdf="http://www.w3.org/1999/02/22-rdf-syntax-ns#"
   xmlns:svg="http://www.w3.org/2000/svg"
   xmlns="http://www.w3.org/2000/svg"
   xmlns:sodipodi="http://sodipodi.sourceforge.net/DTD/sodipodi-0.dtd"
   xmlns:inkscape="http://www.inkscape.org/namespaces/inkscape"
   width="210mm"
   height="297mm"
   viewBox="0 0 210 297"
   version="1.1"
   id="svg8"
   inkscape:version="0.92.4 (5da689c313, 2019-01-14)"
   sodipodi:docname="jednorozecobrys.svg"
   inkscape:export-filename="C:\Users\mrpav\Desktop\jednorožec.png"
   inkscape:export-xdpi="90"
   inkscape:export-ydpi="90">
  <defs
     id="defs2" />
  <sodipodi:namedview
     id="base"
     pagecolor="#ffffff"
     bordercolor="#666666"
     borderopacity="1.0"
     inkscape:pageopacity="0.0"
     inkscape:pageshadow="2"
     inkscape:zoom="0.061871843"
     inkscape:cx="965.30108"
     inkscape:cy="4298.197"
     inkscape:document-units="mm"
     inkscape:current-layer="layer1"
     showgrid="false"
     inkscape:window-width="1920"
     inkscape:window-height="986"
     inkscape:window-x="-11"
     inkscape:window-y="-11"
     inkscape:window-maximized="1" />
  <metadata
     id="metadata5">
    <rdf:RDF>
      <cc:Work
         rdf:about="">
        <dc:format>image/svg+xml</dc:format>
        <dc:type
           rdf:resource="http://purl.org/dc/dcmitype/StillImage" />
        <dc:title></dc:title>
      </cc:Work>
    </rdf:RDF>
  </metadata>
  <g
     inkscape:label="Vrstva 1"
     inkscape:groupmode="layer"
     id="layer1">
    <path
       id="path4758"
       style="fill:#000000;stroke-width:1.81574607"
       d="m -440.15228,-1221.6238 c -1.8804,-0.033 -3.3105,0.43 -5.1051,1.2878 -3.4392,1.6439 -5.5232,4.4819 -6.6591,9.0667 -3.4083,13.7577 7.7618,30.4518 36.8179,55.0255 8.0616,6.8179 12.8965,12.272 12.9171,14.5759 0.055,5.6903 4.72,11.0993 16.4346,19.0546 6.3053,4.2817 13.1493,10.9739 16.5758,16.2078 4.4906,6.8597 9.0025,10.6853 19.5683,16.5913 20.6883,11.5642 21.9025,12.4173 21.9025,15.3933 0,5.9159 7.5904,17.1216 17.4636,25.7819 l 10.3445,9.0739 -8.0031,5.781 c -12.68,9.1601 -16.1541,16.4448 -16.1644,33.9008 -0.019,30.2554 -5.1714,41.6941 -20.7434,46.054 -8.6632,2.4256 -18.285,0.6248 -30.8126,-5.766 l -7.0807,-3.6127 1.0144,7.5665 c 0.5581,4.1614 3.1273,10.6145 5.7092,14.3402 2.5819,3.7256 4.6943,8.5099 4.6943,10.6319 0,2.122 1.1586,5.0167 2.5745,6.4326 2.393,2.393 39.1157,14.0626 44.1813,14.0369 2.8525,-0.013 2.9278,-0.6758 -1.327,11.6913 -4.3411,12.6175 -6.2378,15.8784 -30.3548,52.1953 -27.4808,41.3824 -43.0318,54.9249 -66.2104,57.6579 -13.342,1.5732 -18.3128,6.0215 -22.1966,19.8634 -3.3095,11.795 -3.7566,39.6963 -1.2278,76.6512 1.284,18.7647 2.4134,24.6693 6.2838,32.8507 6.992,14.7797 17.174,23.835 35.4428,31.52 59.6215,25.08065 107.1159,9.35715 155.1012,-51.3472 5.7062,-7.2188 11.7838,-13.8612 13.5061,-14.7614 1.7224,-0.9002 17.0223,-2.6198 33.9995,-3.821 16.9772,-1.2011 39.8038,-3.3418 50.7256,-4.7573 10.9217,-1.4155 20.1017,-2.574 20.4003,-2.574 1.0408,0 -7.0094,19.177 -14.4606,34.447 -22.6091,46.333 -63.7877,78.56498 -121.6944,95.25516 -8.8022,2.53702 -32.9064,7.10481 -53.5647,10.1508 -46.1791,6.80894 -57.6114,9.40609 -72.3243,16.42792 -32.667,15.59052 -49.9234,46.38813 -47.2384,84.30596 2.5847,36.50226 15.7757,52.93556 45.2665,56.39398 l 10.4732,1.22836 -5.4782,-14.858 c -10.6699,-28.93811 -8.7968,-47.29644 6.4926,-63.64213 13.8047,-14.75838 32.1499,-20.29918 54.56,-16.4791 9.9301,1.69273 65.4561,14.59659 67.4062,15.66468 0.266,0.14566 -1.6715,8.35414 -4.3051,18.24128 -7.6865,28.85622 -6.3912,54.699 3.9201,78.21382 7.0301,16.03192 17.724,29.73657 40.5521,51.96737 l 21.9924,21.41678 v 18.69292 c 0,44.93446 21.2038,85.38609 56.8503,108.45694 9.7805,6.33003 26.8283,13.08072 37.5688,14.87661 10.679597,1.7857 32.761097,1.05635 40.742197,-1.34565 4.7499,-1.42948 11.8374,-4.81735 15.7499,-7.52874 10.4315,-7.22895 26.5695,-32.7024 22.9873,-36.28461 -0.4673,-0.46723 -6.0811,0.73766 -12.4747,2.67736 -19.6011,5.94653 -26.7609,5.3318 -30.3785,-2.60811 -4.9288,-10.81754 -3.5352,-13.3686 24.2713,-44.43088 l 17.7096,-19.78329 15.6228,-3.57549 c 8.5924996,-1.96662 27.7237,-6.19946 42.5137,-9.40666 l 26.8903,-5.83169 39.3842,7.46467 c 56.193403,10.65074 64.557403,11.71102 83.869803,10.63036 19.8043,-1.10816 26.7756,-3.42823 68.6015,-22.8322 33.8937,-15.72403 47.7053,-23.82068 67.0543,-39.30716 26.1731,-20.94833 41.9859,-43.70954 78.6784,-113.25252 29.3088,-55.54866 35.4693,-74.86631 37.4184,-117.33548 1.1881,-25.88763 -0.2193,-34.44081 -7.4104,-45.03756 -2.4251,-3.5735 -4.9657,-10.4266 -5.6457,-15.229 -1.6795,-11.861 -6.4877,-22.1904 -13.3082,-28.5905 -4.9977,-4.6897 -5.6834,-6.508 -5.6834,-15.0705 0,-10.8793 -2.6595,-17.2034 -10.2784,-24.4403 -5.5962,-5.3157 -16.5729,-10.5368 -22.1522,-10.5368 -3.771,0 -5.6999,-3.3315 -5.6999,-9.8449 0,-6.8493 -10.7927,-26.2075 -17.4366,-31.2751 -3.4283,-2.6149 -11.1893,-6.5489 -17.2465,-8.7421 -10.5671,-3.8263 -11.1782,-4.3946 -15.0932,-14.027 -4.9572,-12.1972 -9.6053,-18.9205 -23.2704,-33.6616 -11.0574,-11.928 -12.5346,-16.2324 -7.2217,-21.0405 5.3656,-4.8559 25.0255,-9.0258 36.0562,-7.6476 5.6084,0.7008 9.713,0.5047 9.713,-0.4641 0,-4.4277 -9.3006,-14.6218 -18.218,-19.9678 -9.394,-5.6316 -18.1724,-8.8638 -35.7797,-13.1749 -6.9752,-1.7078 -8.6767,-3.3596 -18.1575,-17.6253 -13.3854,-20.1405 -37.3903,-45.3877 -53.0568,-55.8028 -6.7292,-4.4736 -19.3633,-11.4115 -28.0758,-15.4176 -19.4734,-8.9542 -80.986103,-49.4512 -93.099703,-61.2924 -10.8324,-10.5888 -20.5269,-24.4138 -20.5269,-29.2721 0,-1.978 2.0188,-11.2272 4.4865,-20.5538 6.9324,-26.2004 10.3242,-49.255 10.6495,-72.3889 0.3675,-26.1212 -0.6758,-28.0611 -14.333,-26.6515 -9.2865,0.9584 -39.061,14.6149 -66.1701004,30.35 -18.8173996,10.9224 -24.1090996,11.9243 -40.0682996,7.5851 -7.4228,-2.0182 -19.2155,-4.1973 -26.2062,-4.8421 -11.343,-1.0462 -48.115397,-6.6249 -61.281497,-9.2971 -3.4045,-0.6909 -4.9935,-2.1462 -4.9935,-4.5728 0,-5.1776 -6.1281,-16.2715 -12.1424,-21.9816 -5.0426,-4.7875 -40.8949,-25.0114 -44.3394,-25.0114 -2.5793,0 -4.4757,5.875 -10.758,33.3323 l -5.7568,25.1607 -12.4845,-0.7053 c -11.0846,-0.6264 -13.1516,-1.3504 -18.4283,-6.4575 -7.137,-6.9075 -17.2059,-11.3838 -25.6083,-11.3838 -4.1619,0 -8.4562,-1.8265 -13.2224,-5.624 -10.8467,-8.6422 -16.6027,-11.0118 -27.8976,-11.4861 -8.5408,-0.3586 -11.65,-1.4455 -17.4723,-6.1071 -9.1816,-7.3512 -17.2997,-10.6187 -30.4276,-12.2463 -8.5952,-1.0656 -11.5546,-2.3528 -15.4337,-6.7143 -8.2506,-9.277 -13.6431,-11.0473 -29.4529,-9.6682 -12.3559,1.0778 -15.7025,0.653 -27.8206,-3.5295 -7.2174,-2.4911 -10.9279,-3.6006 -13.6761,-3.6494 z m 5.3247,11.9673 c 1.523,-0.033 3.3352,0.4742 5.8534,1.5441 7.8215,3.3229 24.7298,4.5018 32.7618,2.2841 5.4702,-1.5106 7.5003,-1.1104 13.9914,2.7605 l 7.5928,4.5279 -3.961,4.2168 c -2.1787,2.3192 -8.1661,5.248 -13.3051,6.5086 -8.7874,2.1556 -28.2147,3.1944 -36.8081,1.9684 -9.5606,-1.364 -16.4603,-18.1626 -9.3508,-22.7655 1.0312,-0.6677 2.0411,-1.0195 3.2256,-1.0449 z m 249.9512,21.7304 c 3.0078,-0.01 7.0089,2.0427 12.9609,5.456 11.3993,6.5372 22.3869,17.3987 26.6155,26.3095 4.7645,10.0406 3.3683,12.4272 -8.1127,13.8684 -5.4795,0.6878 -17.0466,3.7538 -25.7049,6.8136 -8.6583,3.0597 -16.4207,5.4988 -17.2496,5.4198 -7.7062,-0.733 -7.8031,-6.7063 -0.5555,-34.2682 4.4784,-17.0313 6.6845,-23.5853 12.0463,-23.5991 z m -165.7315,0.2894 c 7.6427,0.028 13.9537,2.1867 19.0608,6.4916 l 5.8467,4.9284 -9.6247,7.4502 c -5.2936,4.0977 -12.3503,8.8532 -15.6818,10.5678 -7.4804,3.8501 -27.3209,6.0938 -38.9552,4.4054 -11.6058,-1.6842 -27.3907,-13.2192 -24.7757,-18.1053 0.9577,-1.7896 4.7958,-3.7904 8.5286,-4.4457 11.9414,-2.0964 28.2367,-5.7465 40.3784,-9.045 5.5722,-1.5137 10.6372,-2.2642 15.2229,-2.2474 z m 50.7395,17.7984 c 5.1088,0.051 6.5959,1.3575 11.466,6.2275 l 6.6704,6.6709 -9.8201,9.9669 c -12.8058,12.997 -23.6842,19.8533 -37.0019,23.3221 -22.5579,5.8756 -47.6439,1.5029 -58.1608,-10.1379 -3.4939,-3.8673 -6.3525,-7.9224 -6.3525,-9.0113 0,-1.379 5.1496,-1.5938 16.9638,-0.708 19.0222,1.4261 23.1993,0.1476 35.3477,-10.8185 10.5669,-9.5384 21.5604,-14.4187 34.3116,-15.2306 2.7672,-0.1762 4.8729,-0.2982 6.5758,-0.2811 z m 353.463697,2.7771 c 0.01,0 0.011,0.01 0.011,0.011 0,0.3243 -17.3683,15.9621 -38.5961,34.7503 -50.3198,44.5368 -45.7833,41.2175 -44.2097,32.3443 1.9039,-10.736 9.5724,-25.5024 15.2156,-29.2995 6.5546996,-4.4105 66.6409,-38.0147 67.5793,-37.806 z m 10.5591,8.3432 c 5.8573,-0.1048 6.6981,4.2411 6.6182,21.1852 -0.093,19.5878 -3.4157,36.6258 -12.9202,66.2394 -6.8092,21.2156 -11.08,27.5422 -25.9715,38.4736 -4.7965,3.521 -10.2458,6.3804 -12.1094,6.3536 -5.6144,-0.08 -24.2150004,-11.1177 -32.8047,-19.466 -9.5853,-9.3156 -15.909,-22.286 -14.195,-29.115 1.8449,-7.3505 16.8521,-25.0241 41.3825,-48.7355 24.4107,-23.5958 36.5634,-32.6622 46.2039,-34.4708 1.4548,-0.2729 2.7115,-0.4451 3.7962,-0.4645 z m -324.892897,5.1981 c 5.1189,0 8.7943,1.3167 12.376,4.4338 l 5.0943,4.4339 -13.6183,13.8756 c -16.4006,16.7111 -30.3898,26.9826 -50.3463,36.9657 -8.2168,4.1104 -16.7963,7.4727 -19.0655,7.4719 -9.2712,0 -35.9012,-18.6268 -35.9012,-25.1075 0,-1.4434 4.5454,-2.127 14.1444,-2.127 26.6637,0 43.6393,-6.9585 61.6851,-25.2858 12.3984,-12.5918 16.0151,-14.6606 25.6315,-14.6606 z m 140.887,13.919 -10.1301,11.1942 c -8.2974,9.169 -15.2862,21.345 -38.6312,67.306 -15.6756,30.8615 -32.7575,62.0217 -37.96,69.2448 -5.2025,7.2231 -10.6648,14.7852 -12.1383,16.8047 -2.5648,3.5152 -2.4951,3.5733 1.6325,1.3642 10.8562,-5.81 19.6618,-18.4259 39.4808,-56.565 36.7864,-70.7905 42.2805,-80.5622 50.7245,-90.2151 9.8666,-11.2789 19.5366,-16.7112 29.747097,-16.7112 h 7.3819 l -3.0153,5.901 c -1.6584,3.2456 -15.619497,24.9466 -31.024397,48.2239 -30.376,45.8987 -33.1624,51.1939 -38.6969,73.535 -8.148,32.8914 -17.2063,42.9894 -59.8697,66.7417 -31.1482,17.3413 -34.5359,19.0556 -34.5359,17.4785 0,-3.4553 44.5771,-97.999 49.7422,-105.4985 3.5234,-5.1157 12.2115,-14.1376 19.3073,-20.0483 24.0555,-20.0381 27.8375,-34.9482 13.2974,-52.4273 -2.3483,-2.8229 -4.2695,-5.7411 -4.2695,-6.4844 0,-0.7434 3.7295,-5.244 8.2879,-10.0014 10.1315,-10.5739 23.6392,-17.017 39.0503,-18.6278 z m -107.7624,2.3932 c 3.6482,-0.01 7.0921,0.9009 10.4945,2.6603 6.5075,3.3652 16.1478,14.3143 17.5612,19.9455 1.6276,6.4849 -4.0797,16.9185 -15.5991,28.5177 -11.8527,11.9348 -23.0504,17.9409 -54.961,29.4809 -12.7701,4.6181 -25.2676,8.3963 -27.7724,8.3963 -2.5048,0 -6.6021,-2.0477 -9.1049,-4.5506 -4.8749,-4.8749 -11.521,-18.0393 -11.5864,-22.951 -0.054,-4.0731 9.4309,-11.6595 27.5627,-22.0447 8.3466,-4.7806 21.2796,-14.0467 28.7398,-20.5915 14.6878,-12.8855 25.3425,-18.8499 34.6656,-18.8629 z m 154.396797,1.9812 c 0.3014,0 0.5195,0.057 0.6361,0.1732 0.6218,0.6218 -2.1336,7.6226 -6.1231,15.5571 -12.8723,25.6018 -16.0901,48.5683 -10.079,71.9352 3.9398,15.3148 20.4209,46.4514 34.5592,65.2896 6.4581,8.6049 22.1269,25.2504 34.8195,36.9894 37.6046,34.7793 61.1691,59.3029 67.3293,70.0697 3.181,5.5598 7.4685,16.7724 9.5281,24.9168 2.0595,8.1443 3.4661,15.0867 3.1253,15.4275 -0.3407,0.3407 -7.5643,-6.0575 -16.0522,-14.2183 -8.4879,-8.1608 -30.14,-27.068 -48.1159004,-42.0155 -57.4620996,-47.7816 -75.1105996,-68.0395 -89.4120996,-102.6325 -9.097397,-22.0048 -11.961997,-40.1553 -10.863997,-68.8356 1.419,-37.0602 10.048697,-62.7834 23.493197,-70.0257 2.9765,-1.6034 5.8495,-2.6342 7.1556,-2.6309 z m 13.8002,1.2393 c 0.1347,0 0.2685,0.011 0.401,0.026 2.3986,0.2712 4.7505,0.8818 5.226,1.3575 0.4757,0.4757 -0.6119,5.9737 -2.4169,12.2174 -7.4373,25.7273 -8.2081,30.135 -8.1721,46.701 0.047,21.2406 4.962,36.7897 17.369,54.9481 9.4584,13.8427 19.4865,22.8378 37.9728996,34.0609 35.1621004,21.3471 58.9257004,48.9064 70.0494004,81.2379 1.8122,5.2672 7.0578,28.0838 11.6567,50.7039 12.4241,61.1097 9.0156,66.5311 -6.103,9.7074 -10.3615,-38.9443 -32.9053,-71.6032 -72.5444004,-105.0933 -23.3975996,-19.7679 -42.9011996,-39.3957 -54.3470996,-54.6928 -18.3739,-24.5559 -28.0013,-57.1327 -24.1742,-81.7991 3.7946,-24.4572 16.5949,-49.5122 25.0827,-49.3748 z m -112.844297,2.3523 c 3.925,0.081 2.4338,2.7876 -4.0912,10.3446 -9.349,10.8276 -15.167,12.5259 -15.167,4.4276 0,-6.6754 5.6865,-12.5923 13.5133,-14.0606 2.5261,-0.4739 4.4366,-0.7387 5.7449,-0.7116 z m 128.834997,2.9522 c 0.4913,-0.01 1.0313,0.017 1.6346,0.061 9.3571,0.6872 10.7697,3.8326 8.1938,18.2464 -1.244,6.9617 -1.8874,19.1303 -1.4294,27.0418 1.0281,17.7593 6.8398,29.5498 20.9005,42.4005 9.6428996,8.8131 29.2774,19.9626 35.155,19.9626 1.7364,0 7.8174,-2.4512 13.5129,-5.4472 5.6954,-2.996 11.0143,-5.4472 11.8199,-5.4472 2.8443,0 27.6789,39.2972 37.2934,59.0114 16.756503,34.3589 20.395403,57.8707 14.352,92.737 -1.5451,8.9142 -4.7855,24.7873 -7.2005,35.2732 l -4.391,19.0656 1.2992,-15.4343 c 0.7144,-8.4886 1.2134,-30.5496 1.1084,-49.0249 -0.2097,-36.9762 -2.8354,-51.5887 -13.2152,-73.5376 -5.8699,-12.4121 -18.0322,-26.9376 -26.0093,-31.0627 -8.8477,-4.5753 -7.9946,-1.4874 2.8149,10.188 21.51,23.2334 29.8798,50.7907 31.4321,103.4909 1.318,44.7442 -0.914,50.8363 -6.5892,17.9859 -11.8095,-68.3581 -30.3184,-98.7811 -79.9378004,-131.3924 -12.4831996,-8.2044 -26.2389996,-18.7851 -30.5686996,-23.5128 -22.128,-24.1626 -30.4397,-69.8309 -18.2061,-100.0353 3.5479,-8.7596 4.5917,-10.5074 8.0305,-10.5699 z m -145.362097,22.3718 c 3.2547,0 10.7133,9.9712 13.6022,18.1844 1.9754,5.6159 1.7723,7.3864 -1.6919,14.7562 -3.022,6.4291 -7.1837,10.6994 -17.9136,18.3803 -23.9503,17.1443 -42.2087,28.4251 -49.1076,30.3413 -7.7165,2.1443 -25.638,2.145 -34.7472,0 -6.3987,-1.5045 -14.5547,-9.0433 -14.5547,-13.4534 0,-3.9361 3.9086,-6.0806 21.6519,-11.8789 32.0208,-10.4639 48.617,-21.3962 72.4256,-47.7082 4.2923,-4.7436 8.9431,-8.6248 10.3353,-8.6248 z m 76.278,19.9735 c 0.2959,0 0.5016,14.9119 0.4553,33.1375 -0.092,36.7585 2.406,50.7159 13.206897,73.7981 13.4251,28.6901 31.0289,46.4925 92.3855996,93.4283 l 11.5073,8.8031 -1.0108,8.4465 c -2.2003,18.3866 -16.6721996,54.6422 -29.1010996,72.9057 -8.4185,12.3702 -46.1144,50.2936 -58.1664,58.5168 -20.893297,14.2557 -48.030997,23.6843 -84.681197,29.4199 -22.7576,3.5617 -56.8313,5.5615 -60.4113,3.5461 -2.47,-1.3906 -1.7836,-4.1249 5.177,-20.6179 8.0753,-19.1343 9.3158,-23.6554 6.4905,-23.6554 -2.8329,0 -6.9006,6.2298 -18.3766,28.144 -16.3564,31.2334 -22.3064,39.7184 -40.8725,58.2874 -13.8638,13.866 -19.2874,17.8902 -33.7039,25.0067 -9.4496,4.6647 -22.9005,9.6746 -29.8912,11.1332 -31.6359,6.6011 -59.5415,-1.1554 -80.8622,-22.4761 -15.8146,-15.8146 -18.4947,-24.5181 -19.5073,-63.3486 -0.4495,-17.2392 -0.2513,-35.8725 0.4402,-41.4078 1.6447,-13.1631 8.7123,-21.3692 24.5758,-28.5321 29.8137,-13.4622 43.3493,-26.4526 79.4675,-76.2683 8.7051,-12.0063 14.1745,-21.7196 16.8698,-29.9599 5.3784,-16.4438 10.8186,-23.3711 20.3724,-25.9426 4.218,-1.1352 12.7758,-3.5174 19.0174,-5.2937 6.2417,-1.7763 11.3482,-2.9094 11.3482,-2.5182 0,0.3914 -2.4567,4.1032 -5.4597,8.2486 -3.0029,4.1454 -5.1511,7.846 -4.7738,8.2233 1.145,1.1451 9.9986,-3.1962 35.28,-17.2987 13.2761,-7.4057 24.5923,-13.0106 25.1473,-12.4556 1.91,1.91 -3.3304,14.1381 -9.7141,22.6674 -3.5175,4.6996 -11.0317,13.4471 -16.6982,19.4391 -5.6666,5.992 -11.9054,12.8517 -13.8643,15.244 l -3.5621,4.3501 3.8143,-1.9988 c 10.8094,-5.6642 38.5428,-37.1829 51.5663,-58.6047 3.7801,-6.2178 10.5879,-13.7244 16.8021,-18.526 18.6711,-14.427 27.109,-27.8886 34.9415,-55.7465 2.6043,-9.2622 7.2423,-21.8393 10.3069,-27.9486 5.0717,-10.1106 30.2081,-50.1463 31.4844,-50.1463 z m 168.517897,37.992 c 1.1506,0.039 2.8665,2.7434 7.1887,9.5792 10.5439,16.6759 25.2154,29.7509 59.087303,52.6567 44.6517,30.1956 68.3739,55.3274 86.8531,92.0136 3.3329,6.6165 6.0613,13.4596 6.0653,15.2073 0,2.6999 -1.7627,3.1776 -11.7549,3.1776 -13.2406,0 -11.6593,1.4017 -23.5592,-20.8809 -15.525,-29.0706 -36.4722,-52.5023 -74.2694,-83.0782 -32.566803,-26.3447 -38.585403,-32.3146 -47.261203,-46.8787 -7.3656,-12.3647 -7.3821,-12.4351 -4.4442,-18.8831 0.7936,-1.7418 1.2935,-2.8274 1.9849,-2.9089 0.036,0 0.072,-0.01 0.1096,0 z m -358.278397,19.1052 c 2.1342,0.062 5.3563,1.9312 13.1051,6.4875 7.2677,4.2734 13.4681,7.9707 13.779,8.216 0.3109,0.2454 -3.9913,9.5322 -9.5606,20.637 -11.0575,22.048 -19.7146,33.0271 -30.3005,38.4276 -10.0144,5.109 -10.0275,5.1009 -6.3366,-3.9951 1.3665,-3.3676 2.9716,-15.745 3.5673,-27.5052 1.148,-22.6692 4.3349,-33.5146 11.7925,-40.1356 1.5429,-1.3698 2.4935,-2.1743 3.9538,-2.1322 z m 80.4473,4.3667 c 2.1092,0.042 0.5148,5.1942 -4.3677,15.9897 -3.0908,6.8341 -10.9067,25.0904 -17.3685,40.5696 -15.8043,37.8593 -16.6911,38.6874 -47.5723,44.401 -20.5193,3.7964 -47.3996,3.4965 -60.173,-0.6718 l -9.9865,-3.2593 5.4472,-2.2019 c 2.996,-1.2111 11.575,-4.6461 19.065,-7.6337 33.7208,-13.4504 48.9272,-27.5097 65.3536,-60.4252 7.6283,-15.2857 8.8046,-16.7062 15.858,-19.1534 4.1901,-1.4538 8.1904,-2.0714 8.8894,-1.3725 1.5938,1.5938 -10.3231,28.9916 -19.7973,45.5161 -7.9615,13.886 -24.9728,31.9688 -33.7152,35.8386 -5.579,2.4695 -7.6179,5.2772 -3.8324,5.2772 3.8282,0 15.602,-7.1023 23.8973,-14.4156 10.3336,-9.1102 22.0686,-26.5129 31.9939,-47.4457 5.0378,-10.6249 9.9897,-17.9672 15.613,-23.1505 5.6451,-5.2035 9.1563,-7.8936 10.6955,-7.8626 z m 310.348497,38.4385 c 3.246,0.2162 24.718003,18.2352 42.575103,35.9611 21.3377,21.1809 38.8416,45.2315 46.8137,64.3227 1.564,3.7449 2.1461,6.8089 1.2935,6.8089 -0.8526,0 -6.5166,-2.4821 -12.5869,-5.5155 -13.9577,-6.9747 -34.2982,-25.7013 -48.089,-44.2737 -10.0842,-13.5807 -30.426103,-51.6649 -30.426103,-56.964 0,-0.2484 0.1446,-0.3578 0.4197,-0.3395 z m -463.549997,33.3602 c 1.8446,-0.011 5.0921,1.0066 9.7591,3.0396 6.407,2.7912 13.0524,4.1167 20.7697,4.1476 6.2417,0.024 11.3487,0.6065 11.3487,1.295 0,0.6884 -3.8812,2.8821 -8.6248,4.8746 -17.6101,7.397 -21.7016,6.7782 -30.8674,-4.67 -4.6382,-5.7932 -5.4598,-8.6685 -2.3853,-8.6868 z m 557.4822,3.3869 c 1.7708,-0.1085 8.7591,4.8468 22.8281,15.043 20.0414,14.5247 41.3058,35.7207 48.9903,48.8332 2.7232,4.6469 4.6478,8.7108 4.2767,9.031 -0.371,0.3197 -7.4202,1.0232 -15.6647,1.5627 -12.3124,0.8056 -15.6137,0.4435 -18.4841,-2.0257 -1.922,-1.6537 -8.0906,-11.9943 -13.7077,-22.9795 -5.6171,-10.9853 -15.0494,-27.1403 -20.9605,-35.8996 -6.0008,-8.8924 -8.9416,-13.4632 -7.2781,-13.5651 z m -357.6696,8.4243 v 0 c -2.6004,0.048 -1.7956,3.8686 2.9011,10.9657 l 4.6819,7.0745 -14.2865,19.6686 c -17.9524,24.7154 -17.7895,24.4478 -14.0332,23.0063 2.5674,-0.9852 2.833,-0.2989 1.7657,4.5605 -1.478,6.7293 0.9603,7.5117 5.0948,1.6345 2.8319,-4.0257 2.8589,-3.9994 1.8108,1.8154 -1.7771,9.8584 1.6949,6.6665 10.252,-9.4242 4.4764,-8.4172 8.3764,-15.0662 8.6662,-14.7764 0.29,0.2901 -1.8367,5.797 -4.7263,12.2375 -6.656,14.8345 -8.1874,19.6799 -6.2193,19.6799 0.8605,0 5.1587,-7.3323 9.5514,-16.2941 4.3926,-8.9618 8.2317,-16.0495 8.5302,-15.7509 0.2988,0.2987 -2.3102,7.6197 -5.7976,16.2682 -3.4874,8.6486 -6.3407,16.2129 -6.3407,16.8099 0,0.597 1.0213,0.7512 2.2696,0.3436 1.2484,-0.4078 5.5102,-8.1981 9.4708,-17.3116 3.9606,-9.1135 7.4566,-16.3146 7.769,-16.0021 0.3123,0.3122 -1.8932,6.9586 -4.901,14.7696 -3.0078,7.8111 -5.0376,14.6331 -4.5108,15.1598 0.5267,0.5267 2.9345,-1.4619 5.3511,-4.4188 3.3842,-4.1411 4.4076,-4.6463 4.4591,-2.1989 0.1316,6.4021 3.0953,2.8944 6.903,-8.1705 l 3.9052,-11.3487 -1.0382,8.6248 c -1.0574,8.7849 1.6241,12.2066 3.9134,4.9935 0.6339,-1.9973 2.7317,-3.6313 4.6618,-3.6313 1.93,0 3.5093,-0.7577 3.5093,-1.6831 0,-0.9254 1.3576,-1.9469 3.0169,-2.2696 1.6592,-0.3229 4.0479,-3.4469 5.3087,-6.9423 2.2024,-6.1063 2.2975,-6.1595 2.4303,-1.3616 0.2087,7.5433 3.5684,5.9833 4.8881,-2.2697 1.1106,-6.9453 3.2994,-9.4432 4.6705,-5.3299 0.3545,1.0633 4.5084,-1.0168 9.2305,-4.6224 8.039797,-6.1389 8.585497,-7.0859 8.585497,-14.8973 v -8.3416 l -10.440697,1.2345 c -38.2442,4.5235 -47.9649,3.4124 -62.2324,-7.1137 -4.3371,-3.1999 -7.4033,-4.7194 -9.0702,-4.6886 z m 285.6921,12.2468 9.1333,10.7652 c 20.4642,24.1208 34.8816,36.8406 50.0998,44.1999 19.7672,9.5591 34.8729,11.9718 62.7445,10.0216 38.8493,-2.7183 51.4756,-2.1478 61.7352,2.789 l 9.079,4.3687 -20.8814,1.2826 c -11.4846,0.7056 -29.8686,3.3652 -40.8538,5.9103 -10.9853,2.545 -28.9612,6.7095 -39.9464,9.2547 -39.2538,9.0946 -61.568,5.0553 -83.1624,-15.0534 -8.451,-7.8696 -15.1193,-18.7362 -13.302,-21.6767 0.4365,-0.7062 1.8196,-12.664 3.0737,-26.573 z m -260.5944,22.7996 c 0.1902,0 0.3018,0.1718 0.3018,0.5462 0,0.9987 -0.792,3.0418 -1.7601,4.5398 -0.9681,1.498 -1.7601,1.9066 -1.7601,0.908 0,-0.9987 0.792,-3.0418 1.7601,-4.5398 0.605,-0.9362 1.1411,-1.4466 1.4583,-1.4542 z m 165.138197,38.6772 5.6084,11.8024 c 6.3536,13.3702 15.375,46.7206 18.2553,67.4869 1.062,7.6574 2.7639,40.3411 3.7822,72.6302 3.2904,104.34389 6.6355,131.85122 20.1419,165.62343 22.4284,56.08137 60.705103,96.01795 132.423403,138.16729 11.4846,6.74955 21.2216,12.58422 21.6375,12.96612 2.2251,2.04142 -11.8616,-0.12756 -25.983,-4.00079 -47.6481,-13.06904 -96.023803,-39.9138 -120.335203,-66.77679 -19.6298,-21.68988 -30.266,-43.03011 -38.7362,-77.71672 -10.0494,-41.15374 -11.3835,-55.95961 -11.8344,-131.34444 -0.4409,-73.7112 -1.2419,-82.8097 -10.9730004,-124.6554 -5.7398,-24.6829 -5.2964,-39.8674 1.5974004,-54.6887 z m 86.598303,13.7124 c 2.2626,0.044 8.0729,2.9309 18.2981,9.0485 36.4759,21.8231 43.8759,22.495 96.6629,8.7778 39.6309,-10.2985 60.0482,-14.4469 61.281,-12.4525 1.1846,1.9167 -75.8967,48.9032 -88.8587,54.1657 -21.2793,8.6393 -56.6057,6.5499 -78.8257,-4.6622 -11.824303,-5.9666 -16.626803,-11.7156 -16.626803,-19.9048 0,-6.4022 4.951,-30.6373 7.059003,-34.5534 0.1549,-0.2879 0.4881,-0.4293 1.0102,-0.4191 z m -67.421203,4.8421 c 2.067,-0.3768 24.6429,25.7054 33.5659,38.918 3.6068,5.3407 8.3256,14.0437 10.4862,19.3399 2.1607,5.2963 4.5813,9.7904 5.379,9.9865 0.7977,0.1964 2.7529,-5.3533 4.345,-12.3321 l 2.8949,-12.6891 4.0643,4.0643 c 4.3756,4.3755 5.0531,10.3081 2.3306,20.406 -3.4692,12.8682 -7.4313,46.0574 -9.2102,77.1509 -2.9085,50.8378 2.2729,108.32862 12.273103,136.17356 11.3449,31.58918 31.9644,63.75648 56.5531,88.22562 21.0281,20.92564 30.6634,27.86126 79.0319,56.89008 20.5055,12.30651 36.7639,22.89447 36.1296,23.52878 -2.5645,2.56458 -22.3471,0.69607 -36.8629,-3.48197 -33.638,-9.682 -70.864,-33.18211 -107.5226,-67.878 -36.245303,-34.30463 -55.372803,-65.25316 -66.227003,-107.15368 -3.8825,-14.98775 -4.7114,-23.62523 -6.1066,-63.64259 -2.7232,-78.1104 -10.6441,-161.6063 -18.1017,-190.8147 -2.071,-8.111 -3.492,-15.5683 -3.1574,-16.5711 0.023,-0.069 0.068,-0.1083 0.1348,-0.1204 z m -100.461,13.2209 c -0.8791,0 -5.4099,7.1496 -10.0687,15.8879 -20.043,37.5942 -21.0601,38.6355 -75.697697,77.4779 -13.7315,9.762 -24.9664,18.0776 -24.9664,18.4795 0,2.7794 11.7735,-0.5004 26.5017,-7.383 20.3152,-9.4933 36.4848,-20.5913 48.0323,-32.9669 22.302697,-23.9023 46.399397,-71.4954 36.198797,-71.4954 z m 337.670303,3.8168 2.7668,9.3157 c 3.9499,13.3009 3.5294,35.9183 -0.9721,52.2712 -2.0562,7.4699 -9.8785,33.1915 -17.3829,57.1593 -7.5044,23.9679 -15.6336,51.7487 -18.065,61.7353 -12.8404,52.73869 -12.8408,104.02878 0,154.66754 2.5781,10.1676 4.6876,18.95121 4.6876,19.51922 0,0.56798 -0.7787,1.03301 -1.7307,1.03301 -1.7113,0 -6.0791,-8.77242 -13.0715,-26.25471 -4.2889,-10.72253 -16.3171,-56.39327 -21.4721,-81.52836 -8.7344,-42.5877 -1.8377,-76.3476 22.6797,-111.0144 23.2572,-32.885 25.8319,-56.2917 12.3884,-112.6273 -1.0375,-4.3479 1.3295,-6.5588 17.9591,-16.7741 z M -0.61278336,-818.376 c 0.057,0 0.1013,0.026 0.1318,0.081 2.71919996,4.8816 5.42729996,25.6773 4.50619996,34.602 -1.4076,13.6382 -7.9466,26.4287 -31.9178996,62.4303 -26.0453,39.1165 -46.4123,64.3004 -76.428997,94.5048 -69.0254,69.45733 -118.8931,92.96614 -180.3957,85.04393 -9.6344,-1.24103 -22.3148,-2.2321 -30.4224,-2.42414 -0.057,0.006 -0.1144,0.0114 -0.1716,0.0169 -0.1595,0.0164 -0.319,0.0335 -0.4785,0.0507 -0.1672,0.0172 -0.3345,0.0328 -0.5018,0.0496 -0.1707,0.0161 -0.3418,0.0308 -0.5126,0.046 -0.1716,0.0145 -0.3434,0.0279 -0.5152,0.0403 -0.1799,0.0132 -0.3595,0.0251 -0.5395,0.0367 -0.1751,0.0101 -0.3504,0.0206 -0.5256,0.0295 -0.1173,0.005 -0.2346,0.01 -0.3519,0.0145 0.1709,0.0109 0.3683,0.0109 0.602,-0.004 -0.025,0.003 -0.09,0.006 -0.068,0.004 0.043,-0.003 0.079,-0.006 0.027,0 -0.032,0.004 -0.1683,0.0143 -0.1188,0.0114 -0.075,0.009 -0.1502,0.0164 -0.2253,0.0238 -0.088,0.009 -0.1767,0.0159 -0.2651,0.0227 -0.058,0.005 -0.1168,0.009 -0.1747,0.0164 -0.071,0.007 -0.1413,0.0164 -0.2119,0.0259 -0.072,0.01 -0.1449,0.0193 -0.217,0.0315 -0.09,0.0148 -0.181,0.0287 -0.2713,0.0439 -0.1,0.0161 -0.1988,0.0333 -0.2982,0.0506 -0.1042,0.018 -0.208,0.038 -0.3121,0.0569 -0.1149,0.022 -0.23,0.043 -0.3452,0.0636 -0.1177,0.0198 -0.2349,0.042 -0.3524,0.063 -0.1386,0.0249 -0.2776,0.0476 -0.4165,0.0697 -0.1309,0.0206 -0.2618,0.0396 -0.3928,0.06 -0.143,0.0225 -0.2862,0.0436 -0.4294,0.0641 -0.1383,0.0188 -0.2768,0.0397 -0.415,0.0594 -0.142,0.0201 -0.2838,0.0414 -0.4258,0.062 -0.1431,0.0196 -0.2855,0.0413 -0.4284,0.0625 -0.1449,0.0206 -0.2899,0.0426 -0.4346,0.0646 -0.145,0.0214 -0.2898,0.0435 -0.4346,0.0661 -0.1481,0.023 -0.2963,0.0443 -0.4444,0.0677 -0.1592,0.0254 -0.3185,0.0499 -0.478,0.0734 -0.1491,0.0214 -0.2981,0.0449 -0.447,0.0672 -0.1651,0.0249 -0.3307,0.0482 -0.4961,0.0708 -0.156,0.0204 -0.3118,0.0416 -0.4677,0.0631 -0.1566,0.0214 -0.3137,0.0415 -0.4702,0.0636 -0.1554,0.0214 -0.3105,0.0435 -0.4656,0.0661 -0.16,0.0225 -0.3198,0.0462 -0.4796,0.0698 -0.1598,0.0228 -0.3194,0.0462 -0.479,0.0703 -0.1675,0.0254 -0.3348,0.0519 -0.5023,0.077 -0.1653,0.0262 -0.3302,0.0521 -0.4956,0.0775 -0.169,0.0249 -0.3381,0.0515 -0.507,0.0775 -0.1706,0.0254 -0.341,0.0517 -0.5116,0.078 -0.1678,0.0249 -0.3351,0.052 -0.5028,0.0786 -0.1663,0.0259 -0.3326,0.0534 -0.4986,0.0811 -0.17,0.0286 -0.3399,0.0574 -0.5096,0.0873 -0.1713,0.0303 -0.3426,0.0615 -0.5136,0.0935 -0.1516,0.0281 -0.3029,0.057 -0.4543,0.0858 -0.096,0.0287 -0.1925,0.0569 -0.2883,0.0868 -0.1387,0.0433 -0.2776,0.0856 -0.416,0.1297 -0.1438,0.0454 -0.2877,0.0899 -0.4315,0.13488 -0.1358,0.0424 -0.2715,0.0851 -0.4072,0.12764 -0.145,0.0462 -0.2903,0.092 -0.4357,0.13695 -0.1355,0.0422 -0.2713,0.0831 -0.4067,0.12607 -0.1405,0.0442 -0.2815,0.088 -0.4222,0.13179 -0.134,0.0417 -0.2679,0.0834 -0.402,0.12504 -0.133,0.0419 -0.2659,0.0835 -0.3984,0.12713 -0.126,0.0398 -0.2515,0.0814 -0.3773,0.12195 -0.1401,0.0456 -0.2801,0.0914 -0.4206,0.13592 -0.1327,0.0416 -0.2645,0.0847 -0.3974,0.12557 -0.1441,0.0448 -0.2888,0.0887 -0.4336,0.13126 -0.1538,0.045 -0.3082,0.0882 -0.463,0.1297 -0.1409,0.0373 -0.2815,0.0754 -0.4227,0.11162 -0.1291,0.0326 -0.2582,0.0663 -0.3876,0.0982 -0.1343,0.0342 -0.2686,0.0678 -0.403,0.10181 -0.1046,0.0254 -0.2089,0.0518 -0.3127,0.0801 -0.1147,0.0311 -0.23,0.0613 -0.3447,0.0925 -0.091,0.0254 -0.1809,0.0513 -0.2708,0.0796 -0.1032,0.0327 -0.2063,0.0668 -0.3095,0.0997 -0.1022,0.0338 -0.2038,0.0689 -0.3059,0.10282 -0.068,0.0233 -0.1362,0.0463 -0.2041,0.0698 -0.5434,0.2458 -1.109,0.50491 -1.6919,0.77515 -0.043,0.029 -0.047,0.0323 -0.098,0.0672 -0.041,0.0284 -0.082,0.0564 -0.093,0.0641 -0.01,0.006 -0.1922,0.13505 -0.1132,0.0791 0.087,-0.0616 0.1577,-0.11814 0.231,-0.17568 -5.3259,2.47142 -12.3298,5.96278 -22.3377,10.97089 -48.3048,24.17241 -53.5229,30.11617 -53.5486,61.00815 -0.014,16.35178 0.4966,19.21357 4.9769,27.85775 2.7461,5.29857 4.9935,9.9674 4.9935,10.37455 0,4.22182 -14.8942,-6.45867 -18.0537,-12.94599 -3.9574,-8.12604 -3.6987,-47.68059 0.3995,-61.08049 4.2648,-13.94454 17.7474,-28.67676 32.8068,-35.84744 17.3658,-8.26892 57.4317,-17.60471 97.8292,-22.79499 11.7075,-1.50426 24.781,-3.52563 29.0519,-4.49223 43.8587,-9.92651 94.8665,-45.29984 120.1384,-83.31431 4.5417,-6.8316 12.3239,-20.3122 17.2941,-29.9574 14.508,-28.1541 16.6472,-30.2442 52.535797,-51.3255 17.932,-10.5335 40.7579,-31.1438 52.1089,-47.0509 4.4713,-6.2659 11.684,-18.5313 16.0284996,-27.2567 4.073,-8.1801 7.8035,-14.3346 8.65680004,-14.3485 z m 285.72680336,8.94 7.7365,11.5843 c 16.1366,24.1631 19.9092,55.9271 11.4561,96.4525 -7.8588,37.6764 -14.2128,52.8428 -46.0246,109.85273 -10.0306,17.9759 -19.4207,33.90916 -20.8669,35.40715 -2.2977,2.38011 -2.5055,-1.16967 -1.6474,-28.14452 1.2845,-40.38286 5.9962,-62.66686 25.7023,-121.55486 15.6681,-46.8214 20.5583,-66.3647 22.5154,-89.9795 z m -51.9281,0.7788 2.8866,9.5968 c 7.0074,23.301 6.6919,49.5296 -0.8707,72.3883 -2.1208,6.4103 -10.7885,25.5453 -19.2614,42.5225 -10.9807,22.0023 -16.2186,34.7788 -18.2376,44.4857 -5.1451,24.73602 -1.217,52.58995 15.6192,110.7565 3.0345,10.48382 5.517,19.67608 5.517,20.42718 0,10.90123 -25.8304,-43.15219 -31.0178,-64.90869 -3.3466,-14.03607 -3.7572,-19.80031 -2.9083,-40.85436 1.0048,-24.92353 2.8892,-35.50683 18.5864,-104.40553 5.4746,-24.0291 6.6841,-33.0283 6.9981,-52.0495 0.2377,-14.4114 1.1762,-23.9571 2.5135,-25.5685 1.1738,-1.4143 6.1936,-4.7809 11.1549,-7.4812 z m -124.2813,19.513 c 5.7869,0.1159 28.8249,8.7066 30.7444,11.8458 1.3373,2.1871 0.9722,10.3844 -1.2542,28.144 -6.5886,52.5568 -1.2283,120.3502 14.4482,182.72578 12.7394,50.68953 29.6255,86.09861 53.9574,113.14554 4.6241,5.14001 8.4073,9.83848 8.4073,10.44072 0,2.9623 -4.4857,-0.24384 -21.6401,-15.46624 -45.0955,-40.01696 -73.0581,-77.13358 -85.6226,-113.65302 -10.449503,-30.37181 -13.315703,-124.20168 -5.6178,-183.89938 2.2528,-17.4706 4.6725,-32.3352 5.3775,-33.0321 0.1869,-0.1848 0.6012,-0.2631 1.1999,-0.2511 z m 92.9545,1.4097 c 0.1677,0 0.279,0.03 0.3287,0.08 0.5299,0.5299 1.3174,7.706 1.7498,15.9468 0.9818,18.7053 -3.0726,47.2062 -12.3264,86.6501 -3.8658,16.4778 -7.7094,33.5732 -8.5411,37.9894 -0.8318,4.4161 -2.5243,8.3665 -3.761,8.7788 -1.7514,0.5837 -2.2359,-10.0246 -2.1844,-47.9759 0.059,-44.6675 -2.1145,-74.2336 -6.4662,-87.9606 -0.7216,-2.2757 2.549,-4.1862 14.8197,-8.6563 7.8482,-2.859 14.7596,-4.891 16.3809,-4.8524 z m -47.0669,10.1017 c 11.4,-0.078 15.6937,22.8456 15.9805,85.3127 0.1757,38.3106 0.8247,50.3372 3.1837,59.0113 1.6297,5.992 3.7944,21.51662 4.8106,34.49923 3.507,44.80552 15.5302,77.6221 44.3673,121.09648 10.425,15.7167 19.5645,27.10712 39.0157,48.62494 6.3445,7.01852 10.8389,12.74376 9.987,12.71807 -3.9838,-0.11081 -23.8943,-9.49344 -33.0817,-15.58922 -37.9337,-25.16902 -71.1676,-84.95284 -84.6553,-152.28528 -9.153,-45.69352 -14.0554,-130.44162 -9.9741,-172.41842 1.8031,-18.5445 2.9765,-20.9183 10.3663,-20.9698 z m -143.988103,13.7237 1.247,4.4726 c 0.6858,2.46 1.3383,18.7719 1.45,36.2485 l 0.2026,31.7753 -52.2247,51.8366 c -28.7236,28.5101 -59.4885,57.46965 -68.366897,64.35474 -33.0747,25.64868 -72.1888,45.40795 -103.697,52.38543 -13.7536,3.04568 -43.5121,5.58115 -99.0405,8.43825 -19.4286,0.99965 -39.8183,2.73455 -45.3109,3.85506 -20.5604,4.19413 -36.9157,16.89116 -46.4985,36.09806 -2.845,5.70235 -5.4638,14.64371 -6.1154,20.88089 l -1.1395,10.90837 -2.1652,-7.26313 c -3.2114,-10.77245 -2.6532,-23.12543 1.5524,-34.36585 3.159,-8.44323 5.6179,-11.41397 15.8874,-19.19005 11.5045,-8.71127 25.36,-16.35942 39.1666,-21.79452 0.096,-0.0499 0.1928,-0.10009 0.2899,-0.14883 0.1647,-0.0848 0.3296,-0.16994 0.4945,-0.25426 0.1755,-0.0911 0.3513,-0.18127 0.5271,-0.27181 0.1646,-0.0834 0.329,-0.16721 0.494,-0.24961 0.176,-0.0886 0.3527,-0.17552 0.5292,-0.26302 0.1667,-0.0811 0.3326,-0.16372 0.4992,-0.24495 0.1705,-0.0821 0.3415,-0.16431 0.5126,-0.24495 0.1724,-0.081 0.3453,-0.16007 0.5178,-0.2408 0.1651,-0.0758 0.3292,-0.1533 0.4946,-0.22841 0.1799,-0.0832 0.3604,-0.16553 0.5415,-0.24599 0.1811,-0.0814 0.3625,-0.16205 0.5442,-0.24185 0.1715,-0.0749 0.3421,-0.15137 0.5147,-0.22376 0.1626,-0.0701 0.3246,-0.1416 0.4873,-0.21135 0.1709,-0.0741 0.3423,-0.14703 0.5137,-0.22013 0.1774,-0.076 0.3555,-0.15058 0.5333,-0.22582 0.1598,-0.0666 0.319,-0.13518 0.4785,-0.2026 0.1737,-0.074 0.3477,-0.14726 0.5219,-0.22013 0.1733,-0.0726 0.3471,-0.14409 0.5209,-0.21548 0.174,-0.0716 0.3483,-0.14261 0.523,-0.2124 0.1841,-0.0744 0.3682,-0.14804 0.5534,-0.21963 0.1944,-0.0747 0.3893,-0.14867 0.585,-0.21961 0.1744,-0.0624 0.3487,-0.12536 0.5235,-0.18656 0.1983,-0.0695 0.3978,-0.13681 0.5974,-0.20256 0.1839,-0.0595 0.3675,-0.11941 0.5519,-0.17727 0.1711,-0.053 0.3412,-0.10808 0.5126,-0.16018 0.1519,-0.0467 0.304,-0.0922 0.4563,-0.13695 0.053,-0.023 0.1051,-0.0457 0.1576,-0.0687 0.1512,-0.0662 0.3031,-0.13052 0.4543,-0.19687 0.1618,-0.0708 0.3243,-0.13978 0.4868,-0.20929 0.146,-0.0633 0.2928,-0.12496 0.4387,-0.18862 0.1581,-0.0689 0.3169,-0.13584 0.4754,-0.2036 0.1572,-0.0676 0.3155,-0.13385 0.4729,-0.20103 0.1589,-0.0673 0.317,-0.13536 0.4759,-0.20256 0.179,-0.0752 0.3583,-0.15034 0.5385,-0.22273 0.1938,-0.0772 0.3884,-0.15245 0.5839,-0.22532 0.1907,-0.0706 0.382,-0.13927 0.5736,-0.20722 0.1697,-0.0618 0.3401,-0.12184 0.5101,-0.18293 0.1868,-0.0667 0.3738,-0.13314 0.5612,-0.19844 0.1808,-0.0642 0.3625,-0.12594 0.5436,-0.18915 0.2016,-0.0695 0.4038,-0.13774 0.6062,-0.20513 0.1947,-0.0629 0.3888,-0.12716 0.5834,-0.19069 0.1927,-0.0627 0.3858,-0.12472 0.5788,-0.18656 0.2131,-0.0703 0.428,-0.13517 0.6433,-0.19843 0.1987,-0.0589 0.3986,-0.11335 0.5979,-0.17002 0.2013,-0.0575 0.4032,-0.11274 0.6052,-0.16743 0.2013,-0.0529 0.4031,-0.10523 0.6046,-0.15761 0.2018,-0.053 0.4048,-0.10097 0.6072,-0.15193 0.1983,-0.0504 0.397,-0.0995 0.5958,-0.14779 0.2204,-0.0536 0.4414,-0.10322 0.663,-0.15143 0.2233,-0.0484 0.4476,-0.0928 0.6718,-0.13641 0.2196,-0.0428 0.4397,-0.082 0.6599,-0.12145 0.2215,-0.0392 0.4436,-0.076 0.6656,-0.11213 0.226,-0.0367 0.4525,-0.0704 0.679,-0.10337 0.2414,-0.036 0.4833,-0.0674 0.7256,-0.0961 0.2511,-0.0297 0.5031,-0.0533 0.755,-0.0744 0.2391,-0.019 0.4782,-0.0357 0.7178,-0.0491 0.2335,-0.0138 0.4674,-0.0212 0.7012,-0.0284 0.2417,-0.006 0.4837,-0.008 0.7255,-0.008 0.2266,0 0.4531,0.007 0.6796,0.0119 0.2206,0.007 0.441,0.0161 0.6615,0.0249 0.2027,0.008 0.4054,0.0151 0.6082,0.0222 0.2077,0.007 0.4154,0.014 0.6232,0.0206 0.2296,0.006 0.4594,0.0167 0.6888,0.0269 0.2099,0.0101 0.4196,0.0191 0.6295,0.0279 0.2129,0.009 0.4257,0.0172 0.6387,0.0254 0.2174,0.008 0.4348,0.0159 0.6521,0.0233 0.2178,0.007 0.4354,0.0145 0.6532,0.0217 0.2142,0.007 0.4287,0.0132 0.6429,0.0196 0.2124,0.006 0.4247,0.0127 0.6372,0.0185 0.2161,0.006 0.4323,0.0116 0.6485,0.0169 0.2164,0.005 0.4327,0.0106 0.6491,0.0156 0.221,0.005 0.442,0.01 0.663,0.014 0.2247,0.005 0.4496,0.009 0.6743,0.0135 0.2437,0.004 0.4872,0.0127 0.7307,0.0206 0.2427,0.007 0.4851,0.019 0.7277,0.03 0.2413,0.0101 0.4828,0.0236 0.7239,0.0372 0.2576,0.0151 0.5149,0.035 0.7721,0.0558 0.2423,0.0193 0.4839,0.043 0.726,0.0651 0.2393,0.0206 0.4783,0.0443 0.7173,0.0677 0.2251,0.022 0.4506,0.0434 0.6759,0.0636 0.2414,0.0212 0.4828,0.0413 0.724,0.0641 0.2309,0.0222 0.4615,0.0438 0.6925,0.0646 0.245,0.0214 0.49,0.0464 0.7348,0.0703 0.2708,0.0269 0.5409,0.0592 0.8108,0.0935 0.257,0.0327 0.5138,0.0693 0.77,0.1075 0.2518,0.0376 0.5028,0.0776 0.754,0.11935 0.2403,0.0406 0.4811,0.0803 0.7214,0.12145 0.2408,0.0404 0.4809,0.0823 0.7214,0.12454 0.2371,0.0412 0.4742,0.0829 0.711,0.12557 0.248,0.0464 0.4957,0.0937 0.7431,0.14263 0.2467,0.0483 0.4928,0.0999 0.7385,0.15296 0.2399,0.052 0.4792,0.1056 0.7183,0.16124 0.2228,0.0516 0.4452,0.10498 0.6677,0.15811 0.2138,0.0498 0.4276,0.1 0.6413,0.15039 0.2202,0.0511 0.4401,0.10441 0.6599,0.15761 0.2255,0.0552 0.4501,0.11356 0.6749,0.17156 0.2353,0.0618 0.4703,0.12531 0.7043,0.19172 0.017,0.005 0.034,0.0111 0.052,0.0161 0.025,0.003 0.05,0.005 0.075,0.009 0.2435,0.0337 0.4866,0.0688 0.7297,0.1049 0.2477,0.0371 0.4955,0.0751 0.7426,0.11576 0.2464,0.0407 0.4927,0.0825 0.7384,0.12713 0.2437,0.0443 0.4869,0.0895 0.7297,0.13796 0.2207,0.044 0.4415,0.0894 0.6625,0.13178 0.02,0.004 0.04,0.009 0.059,0.013 0.1118,0.008 0.2236,0.0148 0.3354,0.0227 0.2383,0.0164 0.4766,0.0365 0.7147,0.0553 0.2403,0.0204 0.4801,0.0421 0.7204,0.063 0.2412,0.0206 0.482,0.0448 0.7229,0.0677 0.2237,0.0214 0.4475,0.0415 0.6713,0.061 0.2422,0.0225 0.4844,0.0467 0.7266,0.0698 0.2393,0.0222 0.4786,0.0435 0.7178,0.0672 0.2285,0.023 0.457,0.0456 0.6857,0.0672 0.2427,0.0217 0.4852,0.0448 0.7276,0.0692 0.2436,0.0236 0.4874,0.0492 0.7307,0.0755 0.2427,0.0251 0.4848,0.054 0.7271,0.0821 0.2397,0.0274 0.4789,0.0584 0.7183,0.0879 0.2518,0.0324 0.5032,0.0661 0.7545,0.10179 0.2525,0.0348 0.5044,0.0756 0.756,0.11628 0.2497,0.0421 0.4991,0.0853 0.7483,0.13023 0.2321,0.041 0.4638,0.0833 0.6955,0.12607 0.2262,0.0415 0.4529,0.0809 0.6791,0.12248 0.2133,0.0396 0.4269,0.0771 0.6408,0.11369 0.1674,0.0286 0.3351,0.0551 0.5028,0.0816 0.1292,0.007 0.2584,0.0135 0.3875,0.0206 0.2384,0.0132 0.477,0.0267 0.7152,0.0414 0.2361,0.0145 0.472,0.0296 0.708,0.0455 0.2336,0.0159 0.4672,0.0317 0.7007,0.0491 0.2309,0.0172 0.4617,0.0353 0.6925,0.0543 0.2228,0.0185 0.4455,0.0371 0.6682,0.0568 0.2101,0.0183 0.4208,0.0338 0.631,0.0506 0.2231,0.0183 0.4462,0.0363 0.6692,0.0563 0.1978,0.0177 0.3954,0.0365 0.5932,0.0543 0.1966,0.0156 0.3931,0.0313 0.5896,0.047 0.2062,0.0145 0.4121,0.0303 0.6181,0.046 0.1256,0.009 0.2514,0.0172 0.3772,0.0254 0.1778,0.003 0.3556,0.003 0.5333,0.005 0.2354,0.004 0.4706,0.0106 0.7059,0.0159 0.2378,0.005 0.4759,0.009 0.7137,0.0161 0.252,0.007 0.5037,0.0172 0.7555,0.0289 0.2429,0.0106 0.4854,0.0238 0.7281,0.0383 0.2254,0.0135 0.4511,0.0267 0.6765,0.0393 0.2231,0.0127 0.446,0.0241 0.6692,0.0357 0.2418,0.0114 0.4834,0.0251 0.725,0.0398 0.2365,0.0148 0.473,0.028 0.7095,0.0434 0.2331,0.0161 0.4666,0.0322 0.6997,0.0481 0.2424,0.0159 0.4844,0.0361 0.7266,0.0548 0.2423,0.0183 0.4844,0.0404 0.7265,0.061 0.2365,0.0204 0.4731,0.0381 0.7096,0.0584 0.235,0.0212 0.4703,0.0421 0.7053,0.0625 0.2451,0.0206 0.4895,0.0448 0.7344,0.0677 0.2432,0.0222 0.4866,0.0455 0.7296,0.0698 0.2537,0.0251 0.5074,0.049 0.7607,0.0775 0.2435,0.032 0.1282,0.0159 0.3452,0.0476 h 0.01 c 36.7414,0.0301 63.1975,-9.96373 100.8574,-35.27536 40.5011,-27.22126 71.556297,-56.10894 96.715997,-89.96604 6.8337,-9.1961 23.7139,-34.6958 37.5114,-56.6663 13.7976996,-21.9706 27.2055996,-42.7762 29.7955996,-46.2349 z m 308.867503,2.5901 c 3.8381,0 13.7521,6.1856 19.3058,12.0452 11.0316,11.6392 15.046,21.3348 15.7628,38.0685 0.8715,20.3429 -2.1051,30.2765 -21.2426,70.8851 -36.2491,76.91833 -43.0661,88.26324 -73.9557,123.07876 -7.9058,8.91063 -15.2606,16.49137 -16.3437,16.84652 -3.0302,0.99354 -7.0809,-33.31258 -4.8669,-41.21867 0.9789,-3.49533 9.7029,-20.24531 19.387,-37.22254 9.684,-16.97725 25.3456,-46.39257 34.8035,-65.36707 21.7882,-43.7118 26.1834,-59.4472 26.1834,-93.7436 0,-12.8546 0.435,-23.3722 0.9664,-23.3722 z m -630.8365,8.2176 c -1.1116,-0.01 -2.5238,0.095 -4.2793,0.3022 -11.1941,1.3218 -23.4412,7.8059 -28.1414,14.8994 -3.8866,5.8657 -5.4782,16.3473 -2.8774,18.9482 0.6658,0.6658 2.1943,1.2108 3.3967,1.2108 3.0596,0 35.339,-30.6811 35.339,-33.5892 0,-1.1911 -0.992,-1.7526 -3.4376,-1.7714 z m 681.9961,46.3981 c 0.1404,0 0.283,0 0.4279,0 2.1078,0.077 4.705,1.005 8.0791,2.6061 16.6199,7.8866 16.0855,30.0686 -1.8309,76.0233 -5.4217,13.90641 -15.1637,35.57557 -21.6488,48.1536 -14.0373,27.22586 -47.5846,73.98223 -69.2133,96.46491 -17.416,18.10364 -31.0613,28.64781 -32.3898,25.02897 -5.0766,-13.82839 -8.1757,-24.66906 -8.1654,-28.54864 0.015,-4.68821 6.0079,-13.06132 30.5005,-42.60827 6.2974,-7.59695 14.5992,-18.99676 18.4485,-25.33282 14.5004,-23.86822 61.4593,-121.55125 66.3504,-138.02155 2.8713,-9.6685 5.0904,-13.681 9.4418,-13.7692 z m -358.865403,28.1425 c 0.073,0 0.1363,0.018 0.1881,0.05 0.8286,0.5122 1.5126,11.3008 1.5229,23.9748 l 0.015,23.0435 -18.7420004,18.23718 c -35.3727996,34.4202 -68.4093996,56.47285 -121.3382966,80.99401 -46.7208,21.64501 -63.2818,28.45433 -78.944,32.46004 -14.0214,3.58582 -42.2002,5.72772 -56.0927,4.26331 -25.8864,-2.72873 -59.896,-13.2779 -43.3462,-13.44467 2.8686,-0.029 24.0083,-0.81116 46.9775,-1.73839 32.9411,-1.32982 44.6388,-2.48595 55.3806,-5.4746 31.4174,-8.74125 72.9149,-33.6868 119.800897,-72.01577 28.5327,-23.32519 75.8286996,-68.37391 86.5641996,-82.45131 3.4523,-4.5268 6.9117004,-7.914 8.0135004,-7.8977 z m 389.871803,17.108 c 0.8968,0 3.8031,3.9915 6.4585,8.8703 7.202,13.2324 6.65,25.3883 -2.3363,51.44954 -12.1474,35.22882 -27.8988,68.01977 -44.2898,92.20263 -9.8878,14.58865 -63.191,84.34065 -66.9499,87.61016 -4.7566,4.13732 -7.1542,4.00698 -13.1568,-0.71467 -7.2009,-5.66428 -19.1461,-21.32438 -19.1461,-25.10028 0,-1.7853 11.2741,-14.581 25.0538,-28.43495 43.027,-43.25938 69.2017,-82.66443 92.1861,-138.78224 12.1728,-29.72089 20.3573,-47.10049 22.1805,-47.10049 z m -388.809303,46.78992 c 0.8827,-0.0119 1.1785,1.05842 1.6355,2.87941 1.8638,7.42598 -0.4672,11.7756 -20.3176004,37.91294 -22.4839996,29.60505 -93.0726996,135.81896 -95.5667966,143.79794 -0.9584,3.0661 -2.6979,7.61746 -3.8654,10.1141 -2.52,5.38943 -6.1729,5.9749 -18.343,2.93936 -11.6714,-2.91113 -16.7332,-5.71452 -18.1012,-10.02472 -1.7578,-5.53826 14.9192,-44.73347 25.9002,-60.87276 26.269397,-38.60912 60.125597,-74.8547 89.256497,-95.55488 10.4382,-7.41725 23.6852996,-17.84313 29.4379996,-23.16914 6.1303,-5.67553 8.6737004,-8.00484 9.9638004,-8.02225 z m 407.938903,3.14296 1.3105,5.44722 c 4.3672,18.14681 -0.1177,55.98199 -10.2144,86.16526 -8.1345,24.31809 -44.1788,97.56431 -58.9183,119.72965 -13.187,19.83052 -31.9011,40.15901 -48.8358,53.04792 -18.3397,13.95839 -73.4363,40.63989 -95.4567,46.22665 -17.7294,4.4981 -53.2319,7.2089 -67.1825,5.12991 -40.0223,-5.96443 -64.466603,-10.67794 -63.917503,-12.32534 0.3718,-1.11551 13.7619,-3.30225 31.212003,-5.09737 49.3664,-5.07839 69.4716,-10.22459 101.8047,-26.05784 22.2995,-10.91991 40.4642,-22.90058 55.5713,-36.65254 12.7417,-11.5988 13.5436,-11.9198 37.6173,-15.06522 16.0349,-2.0951 31.2627,-6.81135 32.3298,-10.01283 0.3639,-1.09162 -6.0721,-3.19808 -15.0719,-4.93303 -8.6391,-1.66547 -16.0675,-3.38812 -16.5081,-3.8287 -0.4404,-0.44038 3.6179,-6.79956 9.0186,-14.13145 40.4074,-54.85659 83.0833,-128.93805 105.1073,-182.45759 z m -404.537603,24.8724 c 0.01,0 0.015,0.004 0.02,0.009 0.3732,0.37322 3.6849,14.23246 7.3592,30.79813 l 6.6807,30.11908 -26.2919004,45.16469 c -14.4603996,24.84038 -28.2063996,48.64381 -30.5469996,52.89701 -2.3405,4.25323 -6.348,9.1213 -8.9054,10.81797 -3.8549,2.55743 -9.4227,3.09824 -32.5695,3.16156 -20.2231,0.0555 -28.1523,-0.52877 -28.7642,-2.11977 -1.2003,-3.12089 2.5749,-19.60755 6.0663,-26.49243 5.0009,-9.86158 104.8568,-144.61779 106.9516,-144.35553 z m -106.8932,47.63687 c 0.1322,-0.003 0.2246,0.022 0.2754,0.0729 0.5559,0.55581 -1.7464,4.87968 -5.1164,9.60819 -27.671897,38.82596 -43.775997,67.60823 -50.840397,90.8663 -2.1813,7.18169 -4.4993,13.01922 -5.1511,12.978 -0.6517,-0.0439 -4.3687,-1.21442 -8.2604,-2.60139 -11.2347,-4.0038 -12.95,-6.72795 -12.5285,-19.89748 0.6958,-21.7378 11.4688,-45.19679 27.0563,-58.91734 8.427,-7.41781 50.467697,-32.05464 54.565097,-32.10915 z m 121.7688,26.95493 c 2.145,-0.0471 7.1873,9.10276 9.5705,17.50902 1.5055,5.31045 0.5704,9.79088 -6.443,30.86737 -12.397,37.25498 -11.6495,36.36354 -35.23560036,41.99692 -17.27149964,4.12522 -21.88399964,4.39462 -21.76769964,1.27021 0.1157,-3.09949 51.5642,-90.90549 53.6774,-91.60991 0.063,-0.0209 0.1292,-0.0321 0.1984,-0.0336 z m -194.498697,7.40731 c 0.051,-0.003 0.092,-0.003 0.123,0 0.032,0.004 0.054,0.0114 0.065,0.0227 0.3601,0.36007 -4.3898,14.45048 -10.5554,31.3123 -6.1657,16.86187 -11.8296,31.35228 -12.5869,32.20111 -0.7573,0.84887 -4.8079,-1.88714 -9.001,-6.08023 -8.9484,-8.94847 -18.6763,-28.45001 -17.8351,-35.75388 0.5471,-4.74912 2.0944,-5.59822 24.9535,-13.69841 12.5791,-4.45741 23.271,-7.8953 24.8368,-8.00364 z m -83.1009,17.50695 c 2.6771,0 5.1664,8.6234 8.2166,28.46183 5.1172,33.28316 16.5657,53.37882 39.643,69.58542 22.022,15.46542 39.9408,22.4351 82.2689,31.99804 15.575,3.51872 58.445997,2.52215 83.524097,-1.94148 36.4541996,-6.48846 79.5422,-22.05024 128.1756,-46.29227 l 28.309403,-14.11078 11.637,5.32836 11.637,5.32887 -7.2631,6.4022 c -12.5891,11.09647 -43.502403,30.56924 -66.828503,42.09613 -27.6906,13.6837 -67.0474004,26.91199 -106.5748,35.82107 -22.1027,4.98173 -34.9602,6.87853 -49.0255,7.23315 -62.153897,1.56703 -116.968897,-19.14964 -154.102197,-58.2414 -6.91,-7.27446 -14.8193,-17.07534 -17.5762,-21.77955 -10.3399,-17.64379 -12.94,-46.96801 -6.1221,-69.04178 3.4652,-11.21902 9.9685,-20.84781 14.0808,-20.84781 z m 19.4024,0 c 5.6019,0 6.0844,0.49141 7.2477,7.37682 2.1183,12.53842 12.7326,31.2235 23.5458,41.45018 14.4568,13.67268 30.856,20.73179 64.4989,27.76471 26.154,5.46753 30.6478,5.88288 63.551197,5.89317 31.935,0.008 37.3866,-0.45974 55.595,-4.76972 23.752,-5.62219 37.5307,-10.87057 66.5288,-25.34161 11.7425,-5.85996 23.2115,-10.80839 25.4863,-10.99674 2.4064,-0.19921 9.6029,3.41643 17.2108,8.64647 l 13.075703,8.98861 -4.0623,3.20498 c -11.597603,9.14924 -80.469403,37.48064 -116.038903,47.73454 -12.3138,3.54983 -31.6621,8.0441 -42.9963,9.98699 -42.9945,7.3702 -77.737197,2.92422 -113.757397,-14.55725 -21.0167,-10.19984 -40.4919,-24.32812 -48.1971,-34.96479 -2.9601,-4.08636 -7.0968,-13.18773 -9.1927,-20.22512 -4.8204,-16.18612 -10.4148,-44.9362 -9.325,-47.92109 0.4557,-1.24836 3.5289,-2.27015 6.8295,-2.27015 z m 276.923197,9.07901 c 1.5365,0 20.5641,21.78783 19.6706,22.52422 -0.3638,0.2998 -8.1883,5.56816 -17.3876,11.70731 -17.86,11.91895 -17.9663,11.97184 -19.4194,9.62059 -1.1085,-1.79358 15.327,-43.85212 17.1364,-43.85212 z m 110.839703,74.4456 c 4.7651,0 28.9166,6.73497 28.9166,8.06358 0,1.24536 -42.7322,34.90391 -59.7348,47.05088 -40.807403,29.1534 -73.411403,41.04765 -140.183203,51.14055 -38.6351,5.83989 -68.3906,7.10663 -86.9699,3.7021 -21.709197,-3.97803 -63.331897,-16.69926 -77.169497,-23.58512 -13.3056,-6.62115 -44.6904,-29.35864 -45.8969,-33.25119 -0.3851,-1.24275 9.9765,3.87548 23.026,11.37398 13.126,7.54251 30.8364,16.00735 39.6405,18.94663 36.1128,12.05646 91.248997,15.05911 126.674397,6.89829 56.3295,-12.97646 144.807303,-54.4686 179.631903,-84.2393 4.2962,-3.67269 9.0973,-6.1004 12.0649,-6.1004 z m 43.0543,12.96149 c 13.1231,0.1356 49.4329,4.55533 51.6769,6.75823 1.566,1.53728 -22.4674,19.73503 -41.8253,31.66938 -16.7279,10.31314 -38.9014,19.86335 -57.581,24.80005 -7.9893,2.11141 -22.6967,4.30451 -32.6833,4.8736 -20.4219,1.16385 -20.4219,1.11885 0,-10.24641 19.5469,-10.87837 41.9624,-27.07656 57.4456,-41.5127 8.3514,-7.78674 16.6633,-14.96973 18.4707,-15.96234 0.4334,-0.23805 1.5947,-0.35753 3.3005,-0.37931 0.3732,-0.005 0.7725,-0.005 1.1959,0 z m -388.796,82.02961 c 1.4498,-0.0178 6.4378,2.26018 11.5606,5.31234 l 9.9348,5.91953 3.2349,17.24856 c 9.0934,48.48589 12.5046,58.70551 24.1272,72.28396 7.7112,9.00868 27.45,19.28755 43.099197,22.44359 10.1469,2.04639 10.7144,2.38763 5.8002,3.48816 -23.096997,5.17232 -56.999597,-11.24195 -76.328697,-36.95536 -16.742,-22.27172 -23.2829,-41.85651 -23.4358,-70.16988 -0.062,-11.40981 0.6382,-19.14923 1.7658,-19.53628 0.064,-0.022 0.1452,-0.0334 0.2418,-0.0346 z m 36.0056,16.12615 c 1.4766,0.0138 3.7569,0.6379 7.2786,1.55494 15.537,4.04569 19.0348,8.65043 19.0971,25.14162 0.1176,31.16763 14.6551,56.98386 39.914797,70.88301 v 5.3e-4 l 9.9865,5.49527 -6.3552,-0.1664 c -30.041497,-0.78497 -51.803697,-15.83842 -61.565197,-42.58551 -6.4583,-17.6962 -11.0644,-39.14583 -11.0644,-51.52502 0,-6.62742 -0.1112,-8.82476 2.7078,-8.79843 z m 38.6607,8.9886 c 2.398,0.0138 6.2271,0.26336 10.383297,0.70848 l 12.0908,1.29501 -1.2532,21.10776 c -1.4271,24.04033 0.2703,33.28377 7.7432,42.16486 5.9429,7.06276 17.2414,12.44083 26.2485,12.49433 8.7146,0.0519 10.2632,2.78237 3.0117,5.31027 -22.4376,7.82179 -46.9925,-7.73663 -55.151097,-34.94515 -2.8223,-9.412 -7.1463,-46.35643 -5.6059,-47.89682 0.1701,-0.17016 1.0939,-0.24701 2.5327,-0.23874 z m 53.327497,3.33829 c 5.0001,0.0243 8.9137,0.47283 8.4987,1.44643 -0.3329,0.7809 -7.4902,10.99449 -15.9055,22.6968 -8.4153,11.70231 -15.9736,21.27674 -16.7959,21.27674 -2.2021,0 -1.8183,-22.46647 0.5524,-32.33291 1.1261,-4.68652 3.3252,-9.54272 4.8866,-10.79107 1.8274,-1.461 11.4558,-2.33146 18.7637,-2.29599 z"
       inkscape:connector-curvature="0"
       inkscape:export-filename="C:\Users\mrpav\Desktop\jed.png"
       inkscape:export-xdpi="90"
       inkscape:export-ydpi="90" />
  </g>
</svg>
